<svg id="Layer_1" data-name="Layer 1" xmlns="http://www.w3.org/2000/svg" xmlns:xlink="http://www.w3.org/1999/xlink" viewBox="0 0 1549.4 765.77"><defs><clipPath id="clip-path" transform="translate(77.06 169.29)"><rect width="1240" height="520" style="fill:none"/></clipPath><linearGradient id="linear-gradient" x1="934.38" y1="469.14" x2="1119.25" y2="469.14" gradientUnits="userSpaceOnUse"><stop offset="0.02" stop-color="#765af8"/><stop offset="0.38" stop-color="#b345f1"/></linearGradient><linearGradient id="linear-gradient-2" x1="1117.73" y1="369.87" x2="1153.46" y2="369.87" xlink:href="#linear-gradient"/><linearGradient id="linear-gradient-3" x1="1103.82" y1="375.22" x2="1142.99" y2="375.22" xlink:href="#linear-gradient"/><linearGradient id="linear-gradient-4" x1="1096.93" y1="375.88" x2="1128.76" y2="375.88" xlink:href="#linear-gradient"/><linearGradient id="linear-gradient-5" x1="1088.3" y1="380.18" x2="1113.44" y2="380.18" xlink:href="#linear-gradient"/><linearGradient id="linear-gradient-6" x1="1080.94" y1="383.58" x2="1097.78" y2="383.58" xlink:href="#linear-gradient"/><linearGradient id="linear-gradient-7" x1="1059.54" y1="391.86" x2="1068.48" y2="391.86" xlink:href="#linear-gradient"/><linearGradient id="linear-gradient-8" x1="1072.82" y1="388.71" x2="1079.99" y2="388.71" xlink:href="#linear-gradient"/><linearGradient id="linear-gradient-9" x1="1047.35" y1="397.35" x2="1055.2" y2="397.35" xlink:href="#linear-gradient"/><linearGradient id="linear-gradient-10" x1="997.48" y1="415.57" x2="1021.3" y2="415.57" xlink:href="#linear-gradient"/><linearGradient id="linear-gradient-11" x1="1014.25" y1="408.11" x2="1034.63" y2="408.11" xlink:href="#linear-gradient"/><linearGradient id="linear-gradient-12" x1="1024.97" y1="400.2" x2="1046.1" y2="400.2" xlink:href="#linear-gradient"/><linearGradient id="linear-gradient-13" x1="980.94" y1="421.98" x2="1010.12" y2="421.98" xlink:href="#linear-gradient"/><linearGradient id="linear-gradient-14" x1="973.84" y1="428.37" x2="1001.18" y2="428.37" xlink:href="#linear-gradient"/><linearGradient id="linear-gradient-15" x1="955.88" y1="440.4" x2="981.74" y2="440.4" xlink:href="#linear-gradient"/><linearGradient id="linear-gradient-16" x1="962.75" y1="432.38" x2="991.73" y2="432.38" xlink:href="#linear-gradient"/><linearGradient id="linear-gradient-17" x1="933.56" y1="458.36" x2="958.31" y2="458.36" xlink:href="#linear-gradient"/><linearGradient id="linear-gradient-18" x1="922.49" y1="476.59" x2="947.11" y2="476.59" xlink:href="#linear-gradient"/><linearGradient id="linear-gradient-19" x1="911.62" y1="493.56" x2="938.31" y2="493.56" xlink:href="#linear-gradient"/><linearGradient id="linear-gradient-20" x1="941.17" y1="444.13" x2="969.92" y2="444.13" xlink:href="#linear-gradient"/><linearGradient id="linear-gradient-21" x1="1119.05" y1="377.01" x2="1169.13" y2="377.01" xlink:href="#linear-gradient"/><linearGradient id="linear-gradient-22" x1="1104.65" y1="389.93" x2="1161.93" y2="389.93" xlink:href="#linear-gradient"/><linearGradient id="linear-gradient-23" x1="1125.21" y1="362.19" x2="1180.54" y2="362.19" xlink:href="#linear-gradient"/><linearGradient id="linear-gradient-24" x1="1089.61" y1="402.87" x2="1153.32" y2="402.87" xlink:href="#linear-gradient"/><linearGradient id="linear-gradient-25" x1="1082.62" y1="411.25" x2="1147.23" y2="411.25" xlink:href="#linear-gradient"/><linearGradient id="linear-gradient-26" x1="1062.6" y1="426.59" x2="1136.61" y2="426.59" xlink:href="#linear-gradient"/><linearGradient id="linear-gradient-27" x1="1074.68" y1="419.54" x2="1138.7" y2="419.54" xlink:href="#linear-gradient"/><linearGradient id="linear-gradient-28" x1="1052.59" y1="436.61" x2="1127.39" y2="436.61" xlink:href="#linear-gradient"/><linearGradient id="linear-gradient-29" x1="1019.44" y1="469.8" x2="1100.48" y2="469.8" xlink:href="#linear-gradient"/><linearGradient id="linear-gradient-30" x1="1032.86" y1="458.51" x2="1112.53" y2="458.51" xlink:href="#linear-gradient"/><linearGradient id="linear-gradient-31" x1="1043.17" y1="450.83" x2="1121.32" y2="450.83" xlink:href="#linear-gradient"/><linearGradient id="linear-gradient-32" x1="1010.14" y1="481.94" x2="1094.38" y2="481.94" xlink:href="#linear-gradient"/><linearGradient id="linear-gradient-33" x1="1000.25" y1="488.34" x2="1085.19" y2="488.34" xlink:href="#linear-gradient"/><linearGradient id="linear-gradient-34" x1="980.41" y1="506.04" x2="1076.08" y2="506.04" xlink:href="#linear-gradient"/><linearGradient id="linear-gradient-35" x1="990.25" y1="497.31" x2="1085.11" y2="497.31" xlink:href="#linear-gradient"/><linearGradient id="linear-gradient-36" x1="956.5" y1="533.15" x2="1067.96" y2="533.15" xlink:href="#linear-gradient"/><linearGradient id="linear-gradient-37" x1="945.6" y1="543.08" x2="1054.8" y2="543.08" xlink:href="#linear-gradient"/><linearGradient id="linear-gradient-38" x1="936.98" y1="551.68" x2="1044.74" y2="551.68" xlink:href="#linear-gradient"/><linearGradient id="linear-gradient-39" x1="968.28" y1="521.42" x2="1080.2" y2="521.42" xlink:href="#linear-gradient"/><linearGradient id="linear-gradient-40" x1="68.03" y1="476.7" x2="251.84" y2="476.7" xlink:href="#linear-gradient"/><linearGradient id="linear-gradient-41" x1="40.75" y1="330.57" x2="70.13" y2="330.57" xlink:href="#linear-gradient"/><linearGradient id="linear-gradient-42" x1="52.47" y1="340.05" x2="84.79" y2="340.05" xlink:href="#linear-gradient"/><linearGradient id="linear-gradient-43" x1="70.05" y1="343.54" x2="92.13" y2="343.54" xlink:href="#linear-gradient"/><linearGradient id="linear-gradient-44" x1="87.28" y1="351.71" x2="101.42" y2="351.71" xlink:href="#linear-gradient"/><linearGradient id="linear-gradient-45" x1="103.83" y1="358.68" x2="110.16" y2="358.68" xlink:href="#linear-gradient"/><linearGradient id="linear-gradient-46" x1="125.84" y1="375.29" x2="144.06" y2="375.29" xlink:href="#linear-gradient"/><linearGradient id="linear-gradient-47" x1="113.67" y1="368.25" x2="127.9" y2="368.25" xlink:href="#linear-gradient"/><linearGradient id="linear-gradient-48" x1="137.67" y1="385.26" x2="161.75" y2="385.26" xlink:href="#linear-gradient"/><linearGradient id="linear-gradient-49" x1="170.54" y1="417.54" x2="218.88" y2="417.54" xlink:href="#linear-gradient"/><linearGradient id="linear-gradient-50" x1="156.75" y1="404.77" x2="200.53" y2="404.77" xlink:href="#linear-gradient"/><linearGradient id="linear-gradient-51" x1="145.28" y1="392.52" x2="189.54" y2="392.52" xlink:href="#linear-gradient"/><linearGradient id="linear-gradient-52" x1="181.39" y1="428.62" x2="237.57" y2="428.62" xlink:href="#linear-gradient"/><linearGradient id="linear-gradient-53" x1="190.31" y1="438.27" x2="244.56" y2="438.27" xlink:href="#linear-gradient"/><linearGradient id="linear-gradient-54" x1="209.01" y1="457.41" x2="264.45" y2="457.41" xlink:href="#linear-gradient"/><linearGradient id="linear-gradient-55" x1="199.25" y1="445.7" x2="258.16" y2="445.7" xlink:href="#linear-gradient"/><linearGradient id="linear-gradient-56" x1="230.64" y1="484.74" x2="288.45" y2="484.74" xlink:href="#linear-gradient"/><linearGradient id="linear-gradient-57" x1="240.72" y1="509.31" x2="295.29" y2="509.31" xlink:href="#linear-gradient"/><linearGradient id="linear-gradient-58" x1="248.36" y1="531.65" x2="298.07" y2="531.65" xlink:href="#linear-gradient"/><linearGradient id="linear-gradient-59" x1="220.19" y1="465.32" x2="283.24" y2="465.32" xlink:href="#linear-gradient"/><linearGradient id="linear-gradient-60" x1="17.84" y1="336.94" x2="69.15" y2="336.94" xlink:href="#linear-gradient"/><linearGradient id="linear-gradient-61" x1="22.59" y1="355.09" x2="83.61" y2="355.09" xlink:href="#linear-gradient"/><linearGradient id="linear-gradient-62" x1="10.03" y1="317.06" x2="63.48" y2="317.06" xlink:href="#linear-gradient"/><linearGradient id="linear-gradient-63" x1="28.48" y1="373.51" x2="99.3" y2="373.51" xlink:href="#linear-gradient"/><linearGradient id="linear-gradient-64" x1="32.54" y1="385.15" x2="106.59" y2="385.15" xlink:href="#linear-gradient"/><linearGradient id="linear-gradient-65" x1="39.34" y1="408.9" x2="127.82" y2="408.9" xlink:href="#linear-gradient"/><linearGradient id="linear-gradient-66" x1="38.81" y1="398.31" x2="115.21" y2="398.31" xlink:href="#linear-gradient"/><linearGradient id="linear-gradient-67" x1="47.12" y1="423.13" x2="137.82" y2="423.13" xlink:href="#linear-gradient"/><linearGradient id="linear-gradient-68" x1="68.33" y1="468.24" x2="171.54" y2="468.24" xlink:href="#linear-gradient"/><linearGradient id="linear-gradient-69" x1="57.31" y1="451.33" x2="157.98" y2="451.33" xlink:href="#linear-gradient"/><linearGradient id="linear-gradient-70" x1="48.71" y1="439.75" x2="147.68" y2="439.75" xlink:href="#linear-gradient"/><linearGradient id="linear-gradient-71" x1="71.68" y1="485.04" x2="180.55" y2="485.04" xlink:href="#linear-gradient"/><linearGradient id="linear-gradient-72" x1="81.2" y1="495.09" x2="190.55" y2="495.09" xlink:href="#linear-gradient"/><linearGradient id="linear-gradient-73" x1="87.47" y1="519.83" x2="209.79" y2="519.83" xlink:href="#linear-gradient"/><linearGradient id="linear-gradient-74" x1="78.59" y1="507.04" x2="200.58" y2="507.04" xlink:href="#linear-gradient"/><linearGradient id="linear-gradient-75" x1="90.06" y1="556.28" x2="231.48" y2="556.28" xlink:href="#linear-gradient"/><linearGradient id="linear-gradient-76" x1="103.76" y1="572.53" x2="241.42" y2="572.53" xlink:href="#linear-gradient"/><linearGradient id="linear-gradient-77" x1="113.83" y1="588.01" x2="249.27" y2="588.01" xlink:href="#linear-gradient"/><linearGradient id="linear-gradient-78" x1="77.93" y1="539.08" x2="220.9" y2="539.08" xlink:href="#linear-gradient"/></defs><title>front</title><g style="clip-path:url(#clip-path)"><rect x="77.06" y="169.29" width="28.46" height="478.49" style="fill:#3e3554"/><path d="M1279.16,270.72c-0.43-17.34-2.48-34-9.62-48.32a102.71,102.71,0,0,0-6.94-11.86l-50,13.9-0.09-.11c7.48-2.49,27.26-9.58,45.43-20.45-8.17-10.81-17.68-20.45-27-30.28a214,214,0,0,1-20.13-23.92c-12.9,8-22.41,20.88-35.06,29.38,5.75-10.65,9.81-22.9,18.25-32.92-18.61-6.62-33.81-19.37-46-33.27-7,12.43-6.11,14.5-16.91,25.47-2.42-13.18.71-20.95-4.79-32.39-5.09-10.51-39.9-15.12-52.16-16.95a117.46,117.46,0,0,0,8.14,12.68c-1.16,16-2.19,41.57,5,47.72,9.56,8.12,17.54,6.69,29.41,12.06-12.73,8.47-14.47,7.12-27.73,11.41,10.37,15.37,19,33.56,21.06,53.82,11.31-6.29,23.75-7.67,35-11.1-10.81,10.9-25.06,17.6-35.45,28.87a216.27,216.27,0,0,1,18,25.65c7.19,11.57,14.13,23.33,22.49,34,14-15.66,25-33.73,29.16-41l0.1,0.13-24,47.09A98.49,98.49,0,0,0,1165,320c11.9,10.41,27.09,16.18,43.31,20.48,2.15-19.08,4.4-36,5-39.86l0.06,0.07c0,0.25-.06.53-0.09,0.89-0.7,6,1.31,22.53,4.13,41.16,22,5.16,45.21,8.74,64.17,18.25,1.34-2.63,1.43-6.67.53-11.71l0.05,0c-4.72-21.26-2.94-45.45-2.88-68.87-15.51-6.43-29.52-11.76-36.17-13.07-0.06-.09-0.11-0.18-0.17-0.26C1249.08,267.59,1263.38,268.94,1279.16,270.72Z" transform="translate(77.06 169.29)" style="fill:#3e3554"/><path d="M1408.79,16.84c-12.15-29.24-26.57-56.19-48.17-75.93A187.32,187.32,0,0,0,1341-74.71L1265-18.12a1.6,1.6,0,0,1-.23-0.12c11.1-9.16,40.1-34.25,63.89-64.7-21-13-43.56-23.18-65.84-33.81a390.79,390.79,0,0,1-50-27.48c-16.71,22.08-24.41,50.3-40.36,73.09,2.78-21.91,1.63-45.45,9.42-68.05-36,1-70.3-10.73-100.13-26.4-3.73,25.77-.87,28.72-12,54.48-12.79-20.85-12.57-36.13-29.47-52-15.58-14.54-77.88.5-99.95,5.46a214.62,214.62,0,0,0,22.2,16.22c8.55,28,23.63,72.22,39.93,77.94,21.61,7.53,34.26-.16,58,1.18-16.1,22.79-20,21.65-39.7,37.67,27.76,19.34,54.39,44.64,71.26,77.78,15.12-18.15,35.4-28.68,52.37-41.95-11.24,25.67-31.09,46.46-41.36,72.47a395,395,0,0,1,47.56,31.83c19.85,15,39.41,30.42,60.65,43.07,13.59-35.9,20.35-73.86,22.67-89l0.26,0.15-10,96a179.73,179.73,0,0,0,22.72,10.12c27.11,9.9,56.76,9.73,87.21,6.37-8.88-33.9-16.2-64.2-17.73-71.15l0.15,0.08c0.12,0.43.25,0.93,0.42,1.57,2.73,10.6,17,37.51,34.11,67.36,40.92-5.71,82.71-14.85,121.25-11.14,0.55-5.35-2-12.3-6.8-20.28a0.26,0.26,0,0,1,.08-0.07c-22-33.09-34.91-75.45-50.2-115.35-30.63-.75-58-0.6-70.18,1.54-0.16-.12-0.31-0.23-0.46-0.33C1355.51,31.3,1380.76,24.2,1408.79,16.84Z" transform="translate(77.06 169.29)" style="fill:#3e3554"/><path d="M1226,187c-14.47,27.8-25.06,36.64-36.41,65-9.37,23.34-17.45,119,2.72,128.16,13.64-15.21,34.5-28.19,53.43-41.75-6.93-14.24-13.59-26.69-17.38-30.5-5.25-5.3,9,8.38,25.11,24.81,13.67-10.34,25.57-21.23,31.83-33.87a73.49,73.49,0,0,0,4.4-11.07l-51.58-23.45A312.2,312.2,0,0,0,1291.56,281c2.63-11.2,3.33-22.53,4.34-33.83a141.09,141.09,0,0,1,4.32-26c-16-3.13-33.53-1.35-49.81-4,12.86-2.73,25.78-7.41,40.15-8.15-8.51-15-9.54-31.6-7.38-47-15.23,3-16.25,4.75-33.14,4.61,8.84-9.12,17.43-11.73,22.57-21.71,4.69-9.16-17.5-32.79-25.15-41.23C1238.09,124.53,1236.88,166.08,1226,187Z" transform="translate(77.06 169.29)" style="fill:#3e3554"/><path d="M134.29,204.42c4.42-14.53,4.53-30,10.22-44.23-13.82,4.9-31.23,6.5-38.68,19.78-12.12,21.63-10.66,48.17-21.51,70.19C93,224.48,86.66,199,90.82,173c-13,6.51-29.49,21.32-38.41,32.2a31.44,31.44,0,0,0-7,22.57c0.12,1.69,2.33,28.26-.61,27.12-6-2.33-9.26-26.9-9.61-32.47-27.32,27,3.44,53.41-2.13,83.5-13.66-9.14-11.94-26.61-22.23-37.82-8.3,22.08-24.73,46.72-21.44,70.71,5.14,37.54,71.17,13.72,91,2.55-0.48,0-24.47-1.22-22.91-3.48,4.39-6.36,31.38-9.71,38.9-11.48,17.73-4.18,30.25-25.08,36.07-40-4.44-1.66-25.72-3.65-24.56-10.34,0.38-2.23,23.24,2,28,1.43,9.12-1,16.13-5.94,21.18-12.67-7.39-.05-34.32,2.85-39.51-3.07-2.23-2.54,67.53-10,48.75-27.91-10.65-10.19-33.35.39-46-7.82,11.74-6.08,24.93-4.16,37.75-4.81,17.81-.89,22.28-12,28.52-25.1-0.06,0-19.72-1.33-17.61-3.44l3.52-1.6q9.71-3,19.54-5.7c4.94-9,11-17.67,19.24-24.53C172.53,157.64,146.19,170.42,134.29,204.42Z" transform="translate(77.06 169.29)" style="fill:#3e3554"/><path d="M528.08,256c0.15,0,2.28,4.57,4.9,10.16,21.12,46.75,45,80.18,74.22,104,3.53,3.11,6.18,5.8,5.88,6.07s-3.48-2-7-5.08c-29.35-23.82-52.78-57.58-73.66-104.79C529.74,260.71,527.88,256,528.08,256Z" transform="translate(77.06 169.29)" style="fill:#3e3554"/><path d="M515.6,250.62c11.05,7.16,12.21,6.89,12.36,6s-0.66-2.17-12.16-9.47-20-12.42-19.86-11.9S504.6,243.45,515.6,250.62Z" transform="translate(77.06 169.29)" style="fill:#3e3554"/><path d="M518.92,259.2c12,7.85,13.3,7.58,13.45,6.62s-0.77-2.36-13.28-10.39-21.66-13.65-21.52-13.09S506.91,251.34,518.92,259.2Z" transform="translate(77.06 169.29)" style="fill:#3e3554"/><path d="M519.2,265.61c13.82,6,15.39,5.68,15.34,4.75,0.14-1-1.39-2.17-15.77-8.44s-23.28-10.13-23.07-9.53S505.52,259.65,519.2,265.61Z" transform="translate(77.06 169.29)" style="fill:#3e3554"/><path d="M521.69,273c14.15,4.38,15.71,3.94,15.58,3,0.07-1-1.58-2.08-16.28-6.72s-23.52-7-23.28-6.44S507.68,268.66,521.69,273Z" transform="translate(77.06 169.29)" style="fill:#3e3554"/><path d="M523.66,279.92c14.4,2.41,15.93,1.82,15.69.86,0-1-1.79-1.93-16.71-4.53S499,273,499.26,273.61,509.4,277.54,523.66,279.92Z" transform="translate(77.06 169.29)" style="fill:#3e3554"/><path d="M528,296.87c16.92-.53,19-1.5,18.61-3,0-1.38-2.37-2.69-19.59-2.36-17,.35-26.19,3.89-26,4.66S511.31,297.48,528,296.87Z" transform="translate(77.06 169.29)" style="fill:#3e3554"/><path d="M525.89,287.76c14.73-.3,16.55-1,16.22-2.1,0-1-2.08-1.94-17.09-1.79-14.78.14-23,2.56-22.86,3.12S511.39,288.11,525.89,287.76Z" transform="translate(77.06 169.29)" style="fill:#3e3554"/><path d="M531.34,305.38c17-1.76,19-2.82,18.51-4.28-0.06-1.37-2.46-2.58-19.73-.95-17,1.65-26.48,6.21-26.32,6.94S514.55,307.21,531.34,305.38Z" transform="translate(77.06 169.29)" style="fill:#3e3554"/><path d="M542.68,331.33c18.76-6.33,20.49-7.85,19.94-9.4-0.29-1.45-2.75-2.36-21.44,4.14-18.5,6.57-29.77,15.1-29.66,15.72S524,337.7,542.68,331.33Z" transform="translate(77.06 169.29)" style="fill:#3e3554"/><path d="M537.86,321.24c18.48-5.52,20.42-6.81,19.94-8.2-0.14-1.27-2.61-2.13-21.05,3.46-18.21,5.64-28.94,13.4-28.88,14S519.54,326.83,537.86,321.24Z" transform="translate(77.06 169.29)" style="fill:#3e3554"/><path d="M532.86,313.91c18.24-5.68,20.31-7,19.81-8.35-0.11-1.27-2.71-2.14-20.92,3.54-17.92,5.74-28,13.72-28,14.34S514.84,319.66,532.86,313.91Z" transform="translate(77.06 169.29)" style="fill:#3e3554"/><path d="M546.9,339.65c19.61-7.9,21.21-9.51,20.77-10.84-0.28-1.28-2.52-1.79-21.87,6.39s-32.06,17.39-32,17.88S527.3,347.54,546.9,339.65Z" transform="translate(77.06 169.29)" style="fill:#3e3554"/><path d="M551,345.06c19.72-7.5,21.18-9.11,20.77-10.42s-2.44-1.76-21.9,6.07-32.68,16.51-32.65,17S531.21,352.52,551,345.06Z" transform="translate(77.06 169.29)" style="fill:#3e3554"/><path d="M559.31,357.75c22.16-7.23,23.42-9,23.1-10.47s-2.3-2-24,5.84-37.87,16.28-37.87,16.71S536.93,364.89,559.31,357.75Z" transform="translate(77.06 169.29)" style="fill:#3e3554"/><path d="M554.12,352c22.11-7.92,23.58-9.73,23.24-11.21s-2.43-2-24.14,6.42S516.07,365,516,365.48,531.86,359.88,554.12,352Z" transform="translate(77.06 169.29)" style="fill:#3e3554"/><path d="M573,374.05c24.77-7.42,25-10.09,24.54-11.71-0.93-1.89-2.43-2.06-26.53,6.68-24.41,8.68-44.63,15.51-44.6,15.75C526.18,385,547.56,381.12,573,374.05Z" transform="translate(77.06 169.29)" style="fill:#3e3554"/><path d="M584.33,382.73c21.48-8.46,20.95-12.28,20.37-13.54-1.21-2-2.41-1-23.47,9A186.5,186.5,0,0,1,541.06,391,161.77,161.77,0,0,0,584.33,382.73Z" transform="translate(77.06 169.29)" style="fill:#3e3554"/><path d="M594.83,390.68c18.18-9.83,17-15.35,16.33-16.13-1.44-2.32-2.3.45-20.41,12-18.53,10.85-36.15,8.18-35.74,8.11C555.18,394.32,575.9,399.19,594.83,390.68Z" transform="translate(77.06 169.29)" style="fill:#3e3554"/><path d="M563.64,367.23c25.68-8,26.42-10.41,26-12.15-0.76-1.84-2.64-2.36-27.6,6.83-25.12,9.21-44.8,18.11-44.84,18.44C517,380.67,537.46,375.06,563.64,367.23Z" transform="translate(77.06 169.29)" style="fill:#3e3554"/><path d="M520.77,243.36c6.49,11.49,6.2,12.81,5.34,12.9s-2-.87-8.73-12.85-11.3-20.19-10.79-20S514.26,232,520.77,243.36Z" transform="translate(77.06 169.29)" style="fill:#3e3554"/><path d="M528.19,250.72c5.44,13.5,5,15,4.11,15-1,.13-2.06-1.31-7.71-15.32s-9.38-23-8.84-22.84S522.74,237.33,528.19,250.72Z" transform="translate(77.06 169.29)" style="fill:#3e3554"/><path d="M512.73,238.17c10.06,12.34,10.28,13.91,9.51,14.15s-2.25-.71-12.6-13.7-17.36-22-16.87-21.89S502.71,226,512.73,238.17Z" transform="translate(77.06 169.29)" style="fill:#3e3554"/><path d="M534.88,258.43c3.65,15.55,3.24,17.39,2.37,17.2-0.88.09-1.85-1.88-5.73-18s-5.85-25.32-5.32-25.07S531.25,243.09,534.88,258.43Z" transform="translate(77.06 169.29)" style="fill:#3e3554"/><path d="M539.07,262.75c1.87,16,1.34,17.78.48,17.48-0.86,0-1.69-2.12-3.75-18.68s-2.44-25.8-1.95-25.52S537.21,247,539.07,262.75Z" transform="translate(77.06 169.29)" style="fill:#3e3554"/><path d="M548.27,272.48c-0.68,19.13-1.56,21.52-2.86,21.05-1.22,0-2.32-2.76-1.82-22.25,0.5-19.2,3.56-29.36,4.24-29.18S549,253.66,548.27,272.48Z" transform="translate(77.06 169.29)" style="fill:#3e3554"/><path d="M543.49,267.35c-0.5,16.49-1.15,18.62-2.09,18.2-0.89,0-1.69-2.43-1.34-19.23,0.36-16.52,2.56-25.37,3.06-25.22S544,251.16,543.49,267.35Z" transform="translate(77.06 169.29)" style="fill:#3e3554"/><path d="M553.86,279c-1.74,19.32-2.71,21.54-4,21-1.21-.08-2.21-2.83-0.59-22.49,1.62-19.4,5.54-30,6.19-29.76S555.66,260,553.86,279Z" transform="translate(77.06 169.29)" style="fill:#3e3554"/><path d="M571.81,299.38c-5.89,21.16-7.29,23-8.65,22.38-1.29-.36-2-3.07,4-24.19,6-21,13.59-33.67,14.18-33.5S577.73,278.3,571.81,299.38Z" transform="translate(77.06 169.29)" style="fill:#3e3554"/><path d="M565.11,290.44c-5.1,21-6.28,23.11-7.49,22.57-1.13-.19-1.82-3,3.31-23.91,5.16-20.71,12-32.76,12.51-32.65S570.26,269.65,565.11,290.44Z" transform="translate(77.06 169.29)" style="fill:#3e3554"/><path d="M560.57,283.81c-5.19,20.74-6.37,23-7.58,22.46-1.13-.14-1.82-3.08,3.36-23.81,5.2-20.44,12.13-31.8,12.7-31.71S565.81,263.3,560.57,283.81Z" transform="translate(77.06 169.29)" style="fill:#3e3554"/><path d="M578.2,304.62c-7.43,22-8.91,23.66-10.09,23.16s-1.54-2.8,6.08-24.5,16-35.92,16.52-35.86S585.61,282.62,578.2,304.62Z" transform="translate(77.06 169.29)" style="fill:#3e3554"/><path d="M582.07,311.3c-7.16,21.93-8.65,23.42-9.83,23s-1.53-2.66,5.86-24.33,15.44-36.51,15.9-36.43S589.2,289.25,582.07,311.3Z" transform="translate(77.06 169.29)" style="fill:#3e3554"/><path d="M592.8,321.85c-7.26,24.4-8.9,25.57-10.22,25.23-1.31-.5-1.76-2.43,5.92-26.4,7.69-24.13,16-41.94,16.45-41.89C605.38,278.66,600,297.12,592.8,321.85Z" transform="translate(77.06 169.29)" style="fill:#3e3554"/><path d="M587.43,315.28c-7.78,24.47-9.45,25.9-10.79,25.52s-1.77-2.59,6.37-26.64,17.06-41.24,17.55-41.21S595.16,290.58,587.43,315.28Z" transform="translate(77.06 169.29)" style="fill:#3e3554"/><path d="M609.79,334.95c-7.69,27.65-9.91,27.63-11.41,27.17-1.64-1.12-1.93-2.61,6.81-29.45,8.73-27.27,16.53-49.87,16.82-49.8C622.28,282.59,617.27,306.48,609.79,334.95Z" transform="translate(77.06 169.29)" style="fill:#3e3554"/><path d="M616.44,343.53c-7.15,26.52-9.62,25.93-11,25.44-1.65-1.31-1.62-2.46,6.76-28.22,8.29-26.29,14.15-49.32,14.33-49.19A514.43,514.43,0,0,1,616.44,343.53Z" transform="translate(77.06 169.29)" style="fill:#3e3554"/><path d="M623.38,351c-7.8,25.26-11.32,23.86-12.36,23.31-1.8-1.63-.65-2.34,8.67-27A233.85,233.85,0,0,0,631,298.12C630.87,298,630.46,324.63,623.38,351Z" transform="translate(77.06 169.29)" style="fill:#3e3554"/><path d="M602.25,326.34c-8.31,28.32-10.38,28.85-12,28.38-1.64-.93-2.16-2.79,7-30.29,9.21-27.81,18.6-49.54,19-49.53C616.66,274.63,610.43,297.35,602.25,326.34Z" transform="translate(77.06 169.29)" style="fill:#3e3554"/><path d="M397.23,347.26c-12.08,12.35-5.19,32.87,12.6,71.19-0.26.85-.52,1.67-0.8,2.47-5.07,14.32-7,26.67-2.5,24.22,1.9-1,4.67-9.26,6.67-19.47q3.82,8.12,8.18,17.27c-3.49,6.93-6.57,12.27-7.42,13.69-2.35,3.93-7,15.51.7,12.43,5.71-2.26,9.89-7.05,13-13l0.21,0.46a78.86,78.86,0,0,1,7.17,17c-6.7,4.46-13.24,8.48-14.88,15.22-1.91,7.86,7,.14,16.19-9.41,6,34.53-24.08,53.64-35.24,66.58,27.56-54.77,5.08-82.5-7.53-112-1.44-4.44-2.58-7.22-3-7.54,0.89,2.54,1.89,5,3,7.54,6.92,21.31,21,81.83-6.37,103.13-3.57-8-8-16.24-12.6-24.63,5.46-4.71,12.31-11.94,15.85-14.49,5.7-4.1-.54-10.95-4.38-7.31-2.29,2.18-9.48,9.09-15.56,14.3-3.95-7.3-7.79-14.71-11.12-22.22,11.53-2.42,27.84-11.19,23.93-11.85s-16.17,4.06-26.19,6.47a99.54,99.54,0,0,1-7.1-27.27c12,6.26,27.82,8,29.78,8.26,3,0.39,6.08-.77,2.52-6.15-3.33-5-18.29-5-32.61-10.5a61.62,61.62,0,0,1,.77-8.73c0.23-1.34.52-2.88,0.87-4.56,7,3.34,15.43,5,21.1,4.76,11.86-.46.4-13-13.89-18.23a20.5,20.5,0,0,1-3.47-1.69C362.27,388,376.58,352.61,397.23,347.26Z" transform="translate(77.06 169.29)" style="fill:#3e3554"/><path d="M1086.33,505.17a60.41,60.41,0,0,0,12.74.32q0.45-8.19.43-15.82c-11.68,1.38-38.83,4-31.23-2.08,7.34-5.91,20.72,2.62,31.25-.84-0.1-7.84-.54-15.17-1.18-22.05-7.34,6-16.22,10.38-24.6,7-6.48-2.64,1.9-7.28,5.24-8.4a156.81,156.81,0,0,0,18.35-7.75c-0.66-5.26-1.42-10.23-2.23-14.84-6.86,6.57-13.78,11.32-15.71,10.78-4.1-1.13,2.86-7.89,12.74-14.06,0.69-.44,1.39-0.91,2.08-1.42-3.93-20.43-8.33-33.57-6.71-38.66a27.17,27.17,0,0,1-18,5.63c-4.18-.25-14.58-2-27.17-2.08a22.34,22.34,0,0,0,1.84,10.18c6.24,13.52-8,26.26-8.81,11.07-0.39-7.26-.48-14.32,1.09-21.18a109.87,109.87,0,0,0-15.12,1.48c-0.59,10.4-.38,22.16,3,26.79,6.59,9,2.62,17.64.1,15.85-1.8-1.29-6.72-23.42-5.73-42.13a70.51,70.51,0,0,0-18.62,6.45c-1.93,4.78-2.92,11.89,1.84,20.39,8.86,15.88,10.86,35.51.51,26.37-7.53-6.64-17.81-22-18.64-33.72-0.47.58-1,1.14-1.42,1.75-2.76,3.64-5.39,7.46-7.91,11.39a15.27,15.27,0,0,0,1.49,5.75c8.69,17.92,23.38,31.27,23.08,38.63s-3.65,5.83-5.94,3.11c-1.81-2.14-19.52-22.38-23.18-40A174,174,0,0,0,955.18,476c9.2,7.49,29.48,15.72,33.13,20.35s-28.87-6.08-34.58-15.59c-3.25,11.39-4.94,22.65-4.51,33C957.35,515,974,515,978.39,515c5.51,0,6.57,10.78-.8,9.61-5.68-.89-20.08.13-27.21-1.2a55.73,55.73,0,0,0,2.18,8.43c7.79,21.64,23,23.79,36.77,18.79,19.95-20.65,51.41-57.44,74.38-104.19,4.9-10.38,8.06-17.69,8.72-19.23a2.79,2.79,0,0,0,.14-0.34l-0.14.34c-2.71,6.59-2.5,10.77-5.57,17-11.44,24.25-35.52,67.44-56.37,90.81a70.6,70.6,0,0,0-6.35,8.52c0.86,6.47,5.7,37.61,19.53,36.26,6.61-.64,20.56-2,34.69-8.36-12.95-8.79-33.63-23.74-23.94-23.5s16.6,15.61,26.89,22.1c13.09-6.55,25.89-17.65,32.73-36.68-12.4,2.64-36,5.16-45.64-10.83-4.51-7.5,6.18-5.25,10-3.68,2.92,1.19,22.77,8.92,37.19,9.74a93,93,0,0,0,3.31-19.3c0-.12,0-0.25,0-0.37-14.06,3-31,2.08-33-.69C1062.7,504,1073.31,503.17,1086.33,505.17Zm-77.73,5.48c-0.22,4.86-17.82.68-19.6-1.29s2.91-9.64,4.68-6.26S1009,502.78,1008.59,510.65Zm21.59-21.49c-2,4.26-16.43-8.1-17.31-10.75s6.27-7.24,6.61-3.33S1033.47,482.25,1030.18,489.15Zm11.75,37.48c2.65-.15.4,6.59-1.47,6.13s-11.75-11.57-9.15-13.82C1035.54,515.3,1039.29,526.79,1041.93,526.64Zm14.78-22.7c-1.84.49-14.92-4.76-13.42-8.08,2.42-5.37,10.12,3.23,12.43,1.8S1058.57,503.45,1056.71,503.94Z" transform="translate(77.06 169.29)" style="fill:#3e3554"/><path d="M435.84,223C411,232.86,391.66,259,391.66,259c18.75-1.81,29.05,18.29,36.81,35.67,4.48,1.53,9.46,1.72,13-2.51,7.89-9.59,20.29,7.86,9.9,10.47-6.48,1.62-12.84,2.58-19.84-1.18a94.17,94.17,0,0,0,6.28,12.5c0.88,1.34,2.14,3,3.63,4.88,8.2,0.39,21.87,0,25.09-6.61,4.67-9.59,11.66-5.23,11-1.74C477,313.32,458.57,324.29,444,322c3.9,4.63,8.88,10.13,14.18,15.75,6.33,0,16.85-1.06,21.74-8.13,7.24-10.46,12.2-5.22,11.47,1.75-0.57,5.52-16,13.75-28.94,10.85,7.34,7.63,14.77,15,20.18,19.94,6.39-.16,15.7-1.6,20.22-8.12,7.25-10.47,12.2-5.22,11.48,1.75-0.52,5.1-13.65,12.49-25.89,11.33,0.43,0.33.87,0.66,1.18,0.85,7,4.37,8.25,17.32,29.9,24.43,16.48,5.42,16.74-15.33,16-25-16.65-22.76-58.27-77.23-86.83-93.65,0,0,52.84,30.2,87.81,86,3.55-4,12.24-4.62,17.54-11.83,6.39-8.72-13.44-63.67-19.67-66.28-3-1.26-12.37-14.46-25.18-28.39,3.95,18.54,8.7,48.62,8.63,54.23-0.09,7.71-8.32-2.2-7.3-11,0.7-6.07-2-30.87-3.74-45.78-7.45-7.88-15.94-15.78-24.94-21.68,6.32,19.29,12.77,51.68,12.87,56.32,0.12,6.25-7.88-.21-7.41-7.66,0.92-14.56-4.41-36.77-8.18-50.37a54.15,54.15,0,0,0-19.61-7.6,43.41,43.41,0,0,0-18.78,1.54c11.18,8.06,23.69,21.26,22.38,39.44-2.33,32.27-11.85-13.08-17.37-27A18.42,18.42,0,0,0,435.84,223Zm37.47,40.32c0.27-6.22-11.91-31.55-7.83-36.68,2.52-3.16,14.05,36.58,14.47,41.76S473,269.57,473.31,263.36Zm52.61,65.45c1.26-7-3.61-45.35-3.61-45.35,3.34,5.23,10.91,48,10.62,54.06S524.67,335.78,525.92,328.81Z" transform="translate(77.06 169.29)" style="fill:#3e3554"/><path d="M485.51,286.28c5.17-26.17-6.3-56.61-6.3-56.61-8.64,16.74-31.11,14.52-49.93,11.63-3.71,2.94-6.57,7-4.9,12.25,3.79,11.82-17.59,12.8-14.16,2.65,2.15-6.32,4.78-12.19,11.73-16A94.39,94.39,0,0,0,408,238.68c-1.6,0-3.69.17-6.07,0.41-4.77,6.68-11.84,18.38-8,24.67,5.53,9.12-1.92,12.64-4.51,10.21-2.12-2-1.36-23.41,8.41-34.4-6,.77-13.33,2-20.92,3.39-3.45,5.3-8.23,14.74-4.94,22.68,4.87,11.75-2.21,13.08-7.69,8.7-4.33-3.47-2.92-20.86,6.55-30.21-10.39,2-20.59,4.31-27.7,6.17-3.32,5.46-7.16,14.07-4.12,21.39,4.87,11.76-2.21,13.09-7.69,8.7-4-3.2-3.1-18.24,4.49-27.9-0.51.18-1,.37-1.36,0.53-7.45,3.51-19-2.45-36.73,11.91-13.48,10.92,3.83,22.38,12.31,27,28.15-1.67,96.48-7.16,125.75-22.28,0,0-54,28.07-119.84,27.26,1.41,5.13-2.75,12.79.45,21.15,3.87,10.1,60.8,23.17,66.37,19.35,2.68-1.84,18.85-2.57,37.5-5.79-17.72-6.72-45.58-19-50.26-22.11-6.44-4.26,6.36-5.8,13.22-.17,4.72,3.88,27,15.05,40.51,21.65,10.67-2,21.89-4.86,31.73-9.23-19.64-5.13-50.37-17.25-54.32-19.68-5.32-3.29,4.44-6.51,10.46-2.08,11.74,8.65,33.29,16.21,46.77,20.39,6.67-3.28,12.57-7.32,17-12.37a43.42,43.42,0,0,0,8.87-16.63c-12.83,5-30.7,8.4-45.27-2.54-25.87-19.44,17.41-2.87,32.13,0A18.42,18.42,0,0,0,485.51,286.28ZM431.32,296c5.08,3.6,33,7.07,35.08,13.28,1.3,3.83-38.36-8-42.94-10.45S426.24,292.36,431.32,296Zm-83.51,8.79c5.19,4.84,40.08,21.52,40.08,21.52-6.21,0-46.23-16.8-51.2-20.35S342.62,299.91,347.8,304.74Z" transform="translate(77.06 169.29)" style="fill:#3e3554"/><path d="M80.14,77.42C42,54.56-12.3,55.42-12.3,55.42c21.43,23,5.28,57-9.86,85,2.52,7.48,7.33,14.28,16.48,14.6C15,155.68,4.5,189.81-9.51,178.7c-8.73-6.93-16.45-14.37-18.59-27.47-4.34,7.94-8.12,15.15-10.17,21-0.88,2.52-1.81,5.9-2.77,9.76,7.8,11.25,22.2,29,34.21,26.51,17.44-3.54,18.76,10.14,13.5,12.84-4.29,2.22-37.53-11.06-49.29-32.59-2.17,9.86-4.4,22-6.46,34.76,6.38,8.41,18.51,21.23,32.83,20.53C4.95,243,3,254.9-6.93,261c-7.9,4.85-34.4-7.16-43.75-27.31-2.64,17.47-4.84,34.77-5.92,47,6.7,8.29,18.06,19.17,31.27,18.53,21.21-1,19.3,10.85,9.33,17-7.28,4.48-30.39-5.4-41.28-22.78,0,0.9,0,1.82.07,2.43,1.3,13.68-14.57,28.5-2,64.39,9.56,27.32,37.29,6.59,49.31-4.13C3.35,311,33.22,200.55,26,146.07c0,0,13.66,100.62-24.72,203.56,8.85,0.68,18.54,11.52,33.47,11.21,18-.38,70.65-82.43,67.79-93.33-1.38-5.24,6.59-31.05,12-62.15-20.54,24-55.54,60.87-63,66.48C41.19,279.55,46,258.58,58.68,251c8.75-5.23,38.86-34,56.82-51.42,2.87-17.87,4.71-37.11,3.38-55-19.13,27.94-55.46,69.38-61.51,74.22-8.16,6.5-7.72-10.65,2.62-17.59,20.2-13.56,44.21-43.16,58.38-62-1.39-12.32-4.42-23.87-9.84-33.68a72.42,72.42,0,0,0-21.11-23.3c0.67,23-4.11,52.95-29.5,69.67-45.09,29.67,5.3-29,18.16-50.44C81.64,92.19,81.76,83.88,80.14,77.42ZM64.79,168c8.51-5.95,29.68-47.8,40.62-47.6,6.75,0.12-34.17,55.74-40.61,61.55S56.29,173.91,64.79,168ZM31.54,304.07c10.53-5.42,56.38-50.81,56.38-50.81-3.54,9.73-52.43,63.14-60.8,68.94S21,309.49,31.54,304.07Z" transform="translate(77.06 169.29)" style="fill:#3e3554"/><path d="M1085.08,199.77c6.63-49.56-24.88-44.55-27.61-41.4,6.44,2.36-15.71,17.9-31.23,21.33-0.72,3.37-.23,8,3.71,12.65,8.46,10.92-7.48,24-9.16,9.55-1.34-8.45-3-15.11-.77-20.3a77.28,77.28,0,0,0-10.76,3.62,29.6,29.6,0,0,0-3.72,2.28c1.7,6.77,2.05,24.84,6.76,31.89,7.21,9.63,2.73,18.88.14,16.76-2.05-1.58-7.67-34.33-9.23-46.91a74.65,74.65,0,0,0-10.49,10.34c0.89,7.27,1.15,23,5.26,33.42,6.47,15,1.67,20.9-3,17.19-3.7-2.68-5.62-32.1-5-47.16a114.06,114.06,0,0,0-11.51,18.63c-0.31,10-1.85,27,.29,37.64,4,16.59-.4,22.08-4.12,18.41-2.83-2.32-1.14-29.81,1-49.69-0.19.5-.39,1-0.51,1.43-3.65,9.6-5.94,1.54-14.85,38-8.9,29.41-5.49,39.57,1.05,40.31,17.29-19.2,67-66.57,84.27-102.75,0.58-.78-32.68,68.78-80.35,106.09,1.36,6-1.07,17.44,4.39,21,6.1,2.13,66.74-19.65,66.22-20.19,0.51-1.78,12-7.09,21.32-16-15-1.41-43.47.27-48.08-.7-6.67-1.31,2.64-10.31,10.14-7.14,5.14,2,27.8,3.26,39.67,6.11,5.29-5.46,9.86-12.51,13.57-22.69-10.91-1-38.64-1.09-42.51-2.05-5.16-1.48,1.14-11.39,7-8.45,11.84,5.48,29.06,5.74,36.58,7.34a203.36,203.36,0,0,0,6.64-27.41c1.82-10.25,3.36-21.65,4.29-32.46-7.76,15.55-17.47,29.52-30.85,21.39-24.73-13.23,13-14.27,22.33-18C1080.26,210.31,1083,205.13,1085.08,199.77ZM1050,244.64c5.12,2.35,24.13-6.9,25.51,2.61,2.64,4.91-24.93,6-30.31,5.75C1041.1,252,1045.35,242.17,1050,244.64Zm-59.94,57.51c4.68,2.68,41.3.46,41.45,0.83-4.84,1.88-46,7.92-49.67,6.83C977.23,308.73,984.75,299.36,990.08,302.15Z" transform="translate(77.06 169.29)" style="fill:#3e3554"/><path d="M872.32,520.16q4.48-11.69,9-23.35c1.63-4.19,3.24-8.39,5-12.53,2-4.81,2.32-10.66,3-15.87,2.08-15.59,4-31.15,5.87-46.76,0.78-6.45,2.27-12.68,2.94-19.18s1.05-13.18,3.15-19.21c0.28-.82,1.35-0.17,1.07.65-2.24,6.44-2.52,13.84-3.23,20.67-0.67,6.5-2.19,12.72-3,19.19-2,16.17-3.91,32.28-6.11,48.42-2.34,17.14-10.59,32.89-16.63,48.63-0.31.81-1.38,0.15-1.07-.65h0Z" transform="translate(77.06 169.29)" style="fill:#3e3554"/><path d="M894.51,430.38c-5.58-12.78-3.3-27.25-7.13-40.56a0.61,0.61,0,1,1,1.15-.41c3.78,13.15,1.51,27.66,7,40.24,0.34,0.79-.67,1.53-1,0.73h0Z" transform="translate(77.06 169.29)" style="fill:#3e3554"/><path d="M890,402c0.69-5.36,1.48-10.71,2.08-16.09,0.31-2.83,1.19-6,.48-8.78q-1.24-4.82-2.47-9.65c-0.22-.85.93-1.27,1.15-0.41,1.68,6.57,3,10.72,2.23,17.38-0.66,6-1.5,11.91-2.27,17.86-0.11.87-1.29,0.55-1.18-.32h0Z" transform="translate(77.06 169.29)" style="fill:#3e3554"/><path d="M891,455c-2.23-5.43-5.77-8.06-7.79-13.53-3.09-8.43-5.18-16.8-9.89-24.38-0.45-.73.54-1.5,1-0.77,5.06,8.14,7.29,17.21,10.62,26.28,1.81,4.93,5.2,7.06,7.22,12A0.61,0.61,0,1,1,891,455h0Z" transform="translate(77.06 169.29)" style="fill:#3e3554"/><path d="M893.58,436.91c2.57-6.15,5-14.9,10.35-18.43,3.91-2.59,6-8.08,9.71-10.41a16,16,0,0,1,4.58-1.42,77.55,77.55,0,0,0,11.8-4c0.72-.31,1.09,1,0.37,1.31-5.12,2.2-10.38,3.32-15.6,5.11-1.43.49-2.34,2.53-3.31,3.77a48.27,48.27,0,0,1-5.07,5.33c-1.07,1-2.62,1.61-3.61,2.66-1.52,1.6-2.52,4.32-3.51,6.36-1.65,3.4-3.17,6.9-4.63,10.41-0.33.8-1.4,0.15-1.07-.65h0Z" transform="translate(77.06 169.29)" style="fill:#3e3554"/><path d="M915.74,406.93c3.94-7.5,8.37-15.27,11-23.54a0.61,0.61,0,1,1,1.18.32c-2.63,8.4-7.08,16.26-11.07,23.87a0.63,0.63,0,1,1-1.07-.65h0Z" transform="translate(77.06 169.29)" style="fill:#3e3554"/><path d="M930.2,403s-0.57-5,3.19-6.74,7.27,3.51,7.27,3.51-1.86,6.23-4.7,6.38S930.92,405,930.2,403Z" transform="translate(77.06 169.29)" style="fill:#3e3554"/><path d="M900.25,393.32s-0.57-5,3.19-6.74,7.28,3.51,7.28,3.51-1.86,6.24-4.7,6.38S901,395.29,900.25,393.32Z" transform="translate(77.06 169.29)" style="fill:#3e3554"/><path d="M930.95,392.85s-0.57-5,3.19-6.74,7.27,3.51,7.27,3.51-1.86,6.23-4.7,6.37S931.67,394.83,930.95,392.85Z" transform="translate(77.06 169.29)" style="fill:#3e3554"/><path d="M931.54,377.33s-3.42-3.26-1.73-7.46,7.36-3.07,7.36-3.07,2.39,6,.42,8.36S933.25,378.23,931.54,377.33Z" transform="translate(77.06 169.29)" style="fill:#3e3554"/><path d="M927.2,376.6s-4.22,1.52-6.44-2.39,1.59-8.76,1.59-8.76,5.74,1,6.42,4.14S928.76,375.45,927.2,376.6Z" transform="translate(77.06 169.29)" style="fill:#3e3554"/><path d="M872.83,410.93s-4.22,1.52-6.44-2.39,1.59-8.76,1.59-8.76,5.74,1,6.43,4.14S874.38,409.77,872.83,410.93Z" transform="translate(77.06 169.29)" style="fill:#3e3554"/><path d="M892,368s-4.22,1.52-6.44-2.38,1.59-8.76,1.59-8.76,5.74,1,6.42,4.14S893.55,366.81,892,368Z" transform="translate(77.06 169.29)" style="fill:#3e3554"/><path d="M915.79,407.74s-4.21,1.52-6.44-2.39,1.59-8.76,1.59-8.76,5.74,1,6.42,4.15S917.35,406.59,915.79,407.74Z" transform="translate(77.06 169.29)" style="fill:#3e3554"/><path d="M907.23,416.11s-4.21,1.52-6.44-2.38,1.59-8.76,1.59-8.76,5.74,1,6.42,4.14S908.79,415,907.23,416.11Z" transform="translate(77.06 169.29)" style="fill:#3e3554"/><path d="M887.73,391.32s-3,3.72-6.59,1.57-2.45-8.55-2.45-8.55,5.38-2.39,7.35,0S888.57,389.43,887.73,391.32Z" transform="translate(77.06 169.29)" style="fill:#3e3554"/><path d="M883.88,383.19s-3,3.72-6.59,1.57-2.46-8.55-2.46-8.55,5.38-2.4,7.35,0S884.72,381.3,883.88,383.19Z" transform="translate(77.06 169.29)" style="fill:#3e3554"/><path d="M892.72,387.11s-3,3.71-6.6,1.57-2.46-8.55-2.46-8.55,5.38-2.4,7.35,0S893.55,385.22,892.72,387.11Z" transform="translate(77.06 169.29)" style="fill:#3e3554"/><path d="M899.43,396.45s-3,3.72-6.6,1.57-2.45-8.55-2.45-8.55,5.38-2.4,7.35,0S900.27,394.56,899.43,396.45Z" transform="translate(77.06 169.29)" style="fill:#3e3554"/><path d="M902.57,381.62s-3,3.72-6.59,1.57-2.45-8.55-2.45-8.55,5.38-2.4,7.35,0S903.41,379.73,902.57,381.62Z" transform="translate(77.06 169.29)" style="fill:#3e3554"/><path d="M904.24,370.86s-3,3.72-6.6,1.57-2.45-8.55-2.45-8.55,5.38-2.4,7.35,0S905.08,369,904.24,370.86Z" transform="translate(77.06 169.29)" style="fill:#3e3554"/><path d="M904.63,363.36a5.6,5.6,0,0,1-6-3.6c-1.61-4.28,2.88-8.3,2.88-8.3s5.52,2.08,5.72,5.32S906.34,362.53,904.63,363.36Z" transform="translate(77.06 169.29)" style="fill:#3e3554"/><path d="M880.87,433.65s-0.27,5-4.25,5.93-6.58-5-6.58-5,2.85-5.72,5.68-5.25S880.48,431.56,880.87,433.65Z" transform="translate(77.06 169.29)" style="fill:#3e3554"/><path d="M878.72,427.1s-1,4.46-4.74,4.45-5.14-5.79-5.14-5.79,3.45-4.54,5.91-3.54S878.7,425.16,878.72,427.1Z" transform="translate(77.06 169.29)" style="fill:#3e3554"/><path d="M873.47,416.57s-2.39,3.7-5.86,2.12-2.92-7.52-2.92-7.52,4.69-2.75,6.67-.79S874.08,414.76,873.47,416.57Z" transform="translate(77.06 169.29)" style="fill:#3e3554"/><path d="M871.85,422.78s-2.4,3.7-5.86,2.12-2.92-7.52-2.92-7.52,4.69-2.75,6.67-.79S872.46,421,871.85,422.78Z" transform="translate(77.06 169.29)" style="fill:#3e3554"/><path d="M873.73,415.16s-0.93-4.51,2.34-6.48S883,411.1,883,411.1s-1.17,5.87-3.75,6.3S874.55,416.88,873.73,415.16Z" transform="translate(77.06 169.29)" style="fill:#3e3554"/><path d="M879.39,427.57s-2.66-3.53-.58-7,7.05-1.5,7.05-1.5,1.36,5.85-.73,7.6S880.81,428.67,879.39,427.57Z" transform="translate(77.06 169.29)" style="fill:#3e3554"/><path d="M923.73,391.16s-1.89,4.55-5.89,3.69-4.52-7.4-4.52-7.4,4.52-4.08,7-2.45S924,389.07,923.73,391.16Z" transform="translate(77.06 169.29)" style="fill:#3e3554"/><path d="M890.88,367.92s-1.89,4.56-5.89,3.69-4.52-7.4-4.52-7.4,4.52-4.08,7-2.45S891.2,365.83,890.88,367.92Z" transform="translate(77.06 169.29)" style="fill:#3e3554"/><path d="M927.79,383.77s-3.33,3.3-6.72.69-1.57-8.81-1.57-8.81,5.59-1.67,7.31.95S928.82,382,927.79,383.77Z" transform="translate(77.06 169.29)" style="fill:#3e3554"/><path d="M922.33,397.73s-0.57-5,3.19-6.74,7.28,3.51,7.28,3.51-1.86,6.24-4.7,6.38S923.05,399.7,922.33,397.73Z" transform="translate(77.06 169.29)" style="fill:#3e3554"/><path d="M928.25,384.34s-0.57-5,3.19-6.74,7.27,3.51,7.27,3.51-1.86,6.24-4.7,6.38S929,386.31,928.25,384.34Z" transform="translate(77.06 169.29)" style="fill:#3e3554"/><path d="M901.51,384.1s-0.57-5,3.19-6.75,7.28,3.51,7.28,3.51-1.86,6.24-4.7,6.38S902.23,386.08,901.51,384.1Z" transform="translate(77.06 169.29)" style="fill:#3e3554"/><path d="M901.2,376.63s-0.57-5,3.19-6.74,7.28,3.51,7.28,3.51-1.86,6.23-4.7,6.38S901.92,378.6,901.2,376.63Z" transform="translate(77.06 169.29)" style="fill:#3e3554"/><path d="M904.91,371.07s-3-3.76-.82-7.65,7.68-1.88,7.68-1.88,1.64,6.36-.59,8.34S906.5,372.22,904.91,371.07Z" transform="translate(77.06 169.29)" style="fill:#3e3554"/><path d="M527.7,409.15a15.38,15.38,0,0,0,7.79-8c8.11,20.27-1,26.77-10.61,52.71a62.68,62.68,0,0,1,13.38-16.11c0.64,4.15-16.73,87-22.67,87-21.2.08-17.66-38.79-36-44.06a156.74,156.74,0,0,1,17.32-10.89c-19.92,3.63-23.6-29.94-27.35-39.71q11.85-7.26,18.76-4.4-4.45-6.45-13.79-7.89c-0.42-2.15-5.1-45.49,4.09-53.87,25.35-27.62,31.59,19,28.26,30.11,2.53-5.6,8.94-11.11,11.18-16.59C535.05,381.28,531.11,393.43,527.7,409.15Z" transform="translate(77.06 169.29)" style="fill:#3e3554"/><path d="M963.5,366.83c-27.62,15.75-40.39,16.67-66.27,35-21.34,15.12-88.64,97.79-81.15,120,18.92-4.7,41.19-2.42,62.57-2,4.61-17.86,8.23-33.88,8.18-40-0.07-8.47.58,13.89,0.64,40,15.79-.19,30.76-2.11,43.09-9.49a78.27,78.27,0,0,0,10.09-7.2l-19.14-56.85s9.73,27.3,24.72,52c9-8.52,16.8-18.5,24.79-28.22a174,174,0,0,1,19.71-21c-8.65-13.84-21.44-24.14-30.53-37.73,10.32,6.27,21.94,10.78,32,19.91,4.07-19.68,14.1-35.65,25.5-48.36-12.09-7.62-13.88-6.72-25-18.38,11.78-2.37,19.19,1.09,29.07-4.6,9-5.25,9.59-42.18,10-55.19C1012,317.5,984.29,355,963.5,366.83Z" transform="translate(77.06 169.29)" style="fill:#3e3554"/><path d="M651.23,256.13C638.68,272.76,637,281,622.91,296.26c-11.61,12.6-71,49.4-84.8,42.67,4.64-11.9,5-26.57,6.55-40.49,12-1.5,22.71-2.51,26.68-2,5.5,0.75-9-1.54-26-3.77,1.45-10.24,4-19.81,9.78-27.21a51.39,51.39,0,0,1,5.53-6L596,276.73a211.74,211.74,0,0,1-31.69-20.42c6.29-5.13,13.43-9.36,20.42-13.74a114.38,114.38,0,0,0,15.32-11c8.27,6.78,13.89,16,22,23-3.21-7.24-5.17-15.16-10.26-22.46,13.13-1,24.35-6.18,33.56-12.52,3.94,8.5,3.2,9.58,9.84,17.81,2.53-7.46.9-12.57,5.42-18.51,4.17-5.44,28.21-2.69,36.7-1.84C687.36,228.76,660.67,243.62,651.23,256.13Z" transform="translate(77.06 169.29)" style="fill:#3e3554"/><path d="M736,420.61c47.73-40.14,91.91-85,119.59-145.15,0,0,.12-5.41.88-6.63,3.92-11.51,10.75-22.48,11.75-34.53-0.2-7.51-1.47-15.9-.6-22.54,4.37-16.53,8.9-31.95,10.68-48.62a15.18,15.18,0,0,1,.32,4.79,99.73,99.73,0,0,1,3.13,13c3.66,19.32,7.79,58.5-3.75,106.8a36.14,36.14,0,0,1-10.88-16.25l-0.71-2.42c0.21,0.83.45,1.64,0.71,2.42,1.75,6.08,6.32,22.4,8.54,35.39,0-.13-1.15,23.7-12.36,56.06-3.25-11.75-8.56-11.52-8.57-11.52-0.1,6.58,1.35,16.46,3.5,27-5.95,16.26-13.31,30.11-21.31,37.6a22.89,22.89,0,0,1-8.17,5.2,51.5,51.5,0,0,0-1.27-5.14c-3.57-11.7-9.51-13.86-11.83-26.77,0.22,11-3.44,37.92-3.17,45.54-25.49,13.52-53.1,37.83-86.21-11.27C729,421.32,733.74,422,736,420.61Z" transform="translate(77.06 169.29)" style="fill:#3e3554"/><path d="M220-55.47c15.72-18.12,25.81-40.35,43.17-57.21-23.07-1.81-49.22-10.71-68.49,3.66-31.38,23.4-46.33,62.62-76.13,87.38,29-31.46,36.26-72.29,59-107.14-22.95,1-56.23,11.79-76.08,21.75A49.63,49.63,0,0,0,76.78-79C75.87-76.48,62-36.75,58.47-40.29c-7.09-7.19,3.93-44.75,7-53C8.76-72,36.12-14.06,8.75,25.76-5.07,3.8,8.63-20.29,1-43.07-25.15-16.57-64.68,8.41-75.35,45.11c-16.72,57.45,93.81,65.52,129.58,62.16-0.68-.33-34.5-17.49-30.79-19.75,10.41-6.36,51.5,6.16,63.48,8.44,28.26,5.37,59.74-16.73,77.7-34.45-5.33-5.25-34.73-21.8-28.77-30.7,2-3,32.24,17.78,39.51,20.07,13.82,4.37,27.07,1.8,38.68-4.66-10.63-4.83-51.32-17.95-55-29.82-1.59-5.09,103.78,29,88.25-8.92C238.46-14,198.92-13.38,186-33.32c20.84-1.22,38.62,10,57.52,17.33,26.26,10.16,39.83-3,57.27-17.87-0.09,0-27.57-14.6-23.18-16.28l6.11,0q15.95,1.87,31.84,4.34c12.9-9.79,27.17-18.43,43.51-23C305.2-98.35,259-96.85,220-55.47Z" transform="translate(77.06 169.29)" style="fill:#3e3554"/><path d="M825.33,242.16c0,0.24-6.9,4-15.31,8.54-70.27,37-121.67,77.62-160,126.51-5,5.91-9.2,10.37-9.54,9.9s3.35-5.78,8.27-11.74c38.27-49.07,90.1-89.07,161-125.65C818.26,245.14,825.32,241.84,825.33,242.16Z" transform="translate(77.06 169.29)" style="fill:#3e3554"/><path d="M834.7,221.57c-11.8,18.38-11.57,20.24-10.29,20.44s3.22-1.2,15.28-20.31,20.57-33.2,19.81-33S846.5,203.27,834.7,221.57Z" transform="translate(77.06 169.29)" style="fill:#3e3554"/><path d="M821.87,227.44c-12.93,20-12.71,22.05-11.34,22.24s3.51-1.37,16.76-22.18,22.58-36,21.74-35.74S834.8,207.48,821.87,227.44Z" transform="translate(77.06 169.29)" style="fill:#3e3554"/><path d="M812.57,228.26c-10.49,22.82-10.25,25.36-8.89,25.23,1.38,0.18,3.31-2.37,14.28-26.13s17.7-38.44,16.81-38.06S823,205.68,812.57,228.26Z" transform="translate(77.06 169.29)" style="fill:#3e3554"/><path d="M801.55,232.72c-8.2,23.26-7.77,25.78-6.38,25.51,1.41,0.06,3.21-2.69,11.85-26.86s13.27-38.64,12.38-38.24S809.71,209.7,801.55,232.72Z" transform="translate(77.06 169.29)" style="fill:#3e3554"/><path d="M791.34,236.31c-5.38,23.56-4.74,26-3.32,25.58,1.4-.08,3-3,8.76-27.45s7.75-38.63,6.9-38.18S796.67,213,791.34,236.31Z" transform="translate(77.06 169.29)" style="fill:#3e3554"/><path d="M766.3,244.29c-1.49,27.5-.36,30.81,1.82,30.11,2,0,4.2-4,6-32,1.75-27.59-2.14-42.39-3.27-42.11S767.63,217.19,766.3,244.29Z" transform="translate(77.06 169.29)" style="fill:#3e3554"/><path d="M779.72,240.37c-1.52,24-.72,26.88.87,26.28,1.44,0,3.08-3.49,4.86-27.9,1.75-24-.64-37.26-1.47-37S781.15,216.81,779.72,240.37Z" transform="translate(77.06 169.29)" style="fill:#3e3554"/><path d="M753.58,250.22c0.28,27.57,1.54,30.68,3.72,29.88,2-.18,4-4.14,4-32.16-0.12-27.64-5.45-42.73-6.52-42.43S753.17,223,753.58,250.22Z" transform="translate(77.06 169.29)" style="fill:#3e3554"/><path d="M714.62,270.11c6.65,30.18,8.6,32.9,10.92,31.92,2.13-.55,3.77-4.6-3.13-34.65-7-29.74-17.83-47.59-18.75-47.39S707.91,240.11,714.62,270.11Z" transform="translate(77.06 169.29)" style="fill:#3e3554"/><path d="M729.82,261.7c5.52,29.75,7.12,32.84,9.19,32,1.85-.29,3.42-4.37-2.2-34.06-5.73-29.31-15.49-46.33-16.36-46.2S724.2,232.22,729.82,261.7Z" transform="translate(77.06 169.29)" style="fill:#3e3554"/><path d="M741.06,253.17c5.77,29.36,7.34,32.66,9.42,31.77,1.85-.24,3.44-4.53-2.33-33.83-5.9-28.84-16.08-44.86-17-44.74S735.16,224.16,741.06,253.17Z" transform="translate(77.06 169.29)" style="fill:#3e3554"/><path d="M702.05,277.43c8.8,31.46,10.92,34,12.89,33.19,1.89-.53,2.91-4.2-6.32-35.22-9.3-30.81-20.83-51.19-21.55-51.14S693.28,246,702.05,277.43Z" transform="translate(77.06 169.29)" style="fill:#3e3554"/><path d="M693.71,284.34C701.92,316,704,318.3,706,317.56c1.88-.58,2.86-4.07-5.85-35.29S680.66,230,680,230.09,685.57,252.61,693.71,284.34Z" transform="translate(77.06 169.29)" style="fill:#3e3554"/><path d="M674.29,298.62c7.5,35.65,9.91,37.6,12,37s3.15-3.85-5.23-38.8-18.47-60.7-19.09-60.69C661.43,236,667,262.62,674.29,298.62Z" transform="translate(77.06 169.29)" style="fill:#3e3554"/><path d="M683.25,289.86c8.5,35.54,10.91,37.83,13.09,37.18s3.22-4.06-6.06-38.92-20.72-59.45-21.4-59.47S674.86,254.09,683.25,289.86Z" transform="translate(77.06 169.29)" style="fill:#3e3554"/><path d="M649,321.75c7.42,39.89,11.25,40.06,13.64,39.28,2.85-1.62,3.3-4.07-6.11-42.8C647.19,279,640,246.48,639.67,246.55,639.41,246.23,642.13,280.8,649,321.75Z" transform="translate(77.06 169.29)" style="fill:#3e3554"/><path d="M634.92,340.71c9.36,34.47,14.94,33.4,16.84,32.39,3.11-2.09,1.78-4-9.86-37.69a307.27,307.27,0,0,1-13.12-64.63C628.85,270.73,626.71,305,634.92,340.71Z" transform="translate(77.06 169.29)" style="fill:#3e3554"/><path d="M622.06,358.24c11.77,29,19.89,26.81,21.11,25.67,3.54-2.47-.35-3.72-14.6-32.54-13.2-29.54-7-58.36-6.95-57.7C622.07,293.93,612.3,327.91,622.06,358.24Z" transform="translate(77.06 169.29)" style="fill:#3e3554"/><path d="M660,306.2c8.19,41.34,11.5,42.4,14.08,41.6,2.75-1.34,3.75-4.44-6.19-44.53-10-40.36-20.18-71.88-20.66-71.92C646.84,231,652.22,264,660,306.2Z" transform="translate(77.06 169.29)" style="fill:#3e3554"/><path d="M844.48,229.58c-17.44,11.2-19.31,10.79-19.33,9.4-0.19-1.47,1.52-3.38,19.71-14.91s30.63-19.5,30.36-18.66S861.77,218.37,844.48,229.58Z" transform="translate(77.06 169.29)" style="fill:#3e3554"/><path d="M832.87,242.06c-20.21,9.6-22.3,9-22.12,7.52-0.06-1.56,2.16-3.43,23.14-13.39s34.49-16.54,34.13-15.64S852.91,232.44,832.87,242.06Z" transform="translate(77.06 169.29)" style="fill:#3e3554"/><path d="M853,216.21c-19.14,17-21.44,17.5-21.68,16.25-0.44-1.22,1.32-3.7,21.44-21.25s34.1-29.46,33.83-28.66S871.93,199.24,853,216.21Z" transform="translate(77.06 169.29)" style="fill:#3e3554"/><path d="M820.86,253.37c-22.92,6.8-25.53,6.23-25.13,4.81,0-1.42,3-3.11,26.78-10.33,23.65-7.27,37.31-10.92,36.88-10S843.48,246.62,820.86,253.37Z" transform="translate(77.06 169.29)" style="fill:#3e3554"/><path d="M814.06,260.43c-23.32,3.93-25.84,3.16-25.29,1.75,0.13-1.41,3.27-2.87,27.45-7.14,24-4.3,37.55-5.4,37.08-4.58S837.11,256.53,814.06,260.43Z" transform="translate(77.06 169.29)" style="fill:#3e3554"/><path d="M798.8,275.94c-27.52,0-30.84-1.35-30-3.47,0.13-2,4.29-3.93,32.35-4.2,27.64-.25,41.9,4.16,41.54,5.28S825.87,276.11,798.8,275.94Z" transform="translate(77.06 169.29)" style="fill:#3e3554"/><path d="M806.84,267.88c-23.73.11-26.71-.85-26-2.4,0.07-1.45,3.73-2.88,27.93-3.24,23.79-.33,36.28,2.75,36,3.57S830.13,267.86,806.84,267.88Z" transform="translate(77.06 169.29)" style="fill:#3e3554"/><path d="M788.61,285.4c-27.65-1.76-30.72-3.22-29.8-5.32,0.28-2,4.38-3.75,32.54-2.21,27.78,1.56,42.51,7.36,42.12,8.42S815.89,287.27,788.61,285.4Z" transform="translate(77.06 169.29)" style="fill:#3e3554"/><path d="M756.87,315.73c-29.75-8.4-32.22-10.58-31.14-12.83,0.7-2.12,4.7-3.46,34.39,5.1,29.46,8.63,46.78,20.24,46.46,21.21S786.49,324.18,756.87,315.73Z" transform="translate(77.06 169.29)" style="fill:#3e3554"/><path d="M770.66,304.33c-29.56-7.13-32.52-8.94-31.57-10.93,0.42-1.84,4.53-3.12,34.07,4.06,29.2,7.24,45.69,17.63,45.45,18.53S800,311.56,770.66,304.33Z" transform="translate(77.06 169.29)" style="fill:#3e3554"/><path d="M780.83,296.57c-29.23-7.29-32.42-9.08-31.41-11.08,0.35-1.84,4.69-3.13,33.91,4.14,28.8,7.32,44.28,18,44.08,18.9S809.72,304,780.83,296.57Z" transform="translate(77.06 169.29)" style="fill:#3e3554"/><path d="M748.45,326.41c-30.72-10.87-33-13.18-32.09-15.13,0.67-1.88,4.24-2.66,34.55,8.53s49.71,24.1,49.55,24.88S779.22,337.25,748.45,326.41Z" transform="translate(77.06 169.29)" style="fill:#3e3554"/><path d="M738.31,333.08c-30.7-10.44-32.65-12.78-31.83-14.71s4-2.63,34.33,8.19,50.64,23.09,50.47,23.85S769.17,343.46,738.31,333.08Z" transform="translate(77.06 169.29)" style="fill:#3e3554"/><path d="M721.65,351.12c-34.25-10.46-35.71-13.07-35.05-15.24,0.9-2.16,3.74-3,37.31,8.17,33.8,11.17,58.39,23.71,58.26,24.44C782.3,369.19,756.38,361.46,721.65,351.12Z" transform="translate(77.06 169.29)" style="fill:#3e3554"/><path d="M731.85,342c-34.28-11.3-36.12-13.94-35.4-16.14s4-3,37.6,8.89S791.31,360.23,791.2,361C791.29,361.78,766.46,353.23,731.85,342Z" transform="translate(77.06 169.29)" style="fill:#3e3554"/><path d="M700.5,379.48c-38.88-11-38.56-14.59-37.69-17.06,1.84-2.72,4-3.29,41.6,9.45C742.6,384.56,774.17,396,774,396.48,774.39,396.9,740.59,390.08,700.5,379.48Z" transform="translate(77.06 169.29)" style="fill:#3e3554"/><path d="M687.23,390.79c-37.31-10.16-36.15-14.21-35.26-16.46,2.12-2.76,3.77-2.77,39.83,9.43,36.84,12,69.29,20.29,69.08,20.58C761.2,404.54,726,400.33,687.23,390.79Z" transform="translate(77.06 169.29)" style="fill:#3e3554"/><path d="M675.5,402.48c-35.42-11.29-32.92-17.1-32-18.81,2.59-3,3.47-1.19,37.81,12.61C716.65,409.54,751.19,412,750.83,412,751.06,411.73,712.64,412.55,675.5,402.48Z" transform="translate(77.06 169.29)" style="fill:#3e3554"/><path d="M713.92,366.73c-39.76-11.94-40.25-15.29-39.36-17.94,1.56-2.72,4.31-3.67,42.77,9.75,38.92,13.44,69,27.52,69,28.17C786.62,387.32,754.66,378.44,713.92,366.73Z" transform="translate(77.06 169.29)" style="fill:#3e3554"/><path d="M-0.21,242.57s157.56-3.76,191-3.21,72.3-5.7,79.25,4.51-41.55,14.11-39,17.73,64.09-28.95,88.1-23.63,32,16.17,62.17,18.63,78.21-16.43,85.92-29.53-27.8,23.73,5.29,27.27,54.66,6,75.88-3.88,54.3,3.51,61.08,3.88,51-3.55,59.25-10.83,46-3.76,57.5,5.73,49.85,28.88,73.28,9.76,60.76-20.72,60.76-20.72-17.36,19.85,4.32,22.39,63.35-10.1,39.92-26,32.43-9,44.58,4.05,45.85,33,51.18,25.76,38.91-40.5,78.12-40.21,31.21,24.37,53.88,32.33S1240,237.11,1240,237.11v38.78H0Z" transform="translate(77.06 169.29)" style="fill:#3e3554"/><rect x="77.06" y="438.94" width="1248.41" height="250.36" style="fill:#3e3554"/><g style="opacity:0.5"><path d="M1119.25,396.65c0,0.24-6.9,4-15.31,8.54-70.27,37-121.67,77.62-160,126.51-5,5.91-9.2,10.37-9.54,9.9s3.35-5.77,8.27-11.74c38.27-49.07,90.1-89.07,161-125.65C1112.17,399.63,1119.23,396.33,1119.25,396.65Z" transform="translate(77.06 169.29)" style="fill:url(#linear-gradient)"/><path d="M1128.61,376.06c-11.8,18.38-11.57,20.24-10.29,20.44s3.22-1.2,15.28-20.31,20.57-33.2,19.81-33S1140.41,357.76,1128.61,376.06Z" transform="translate(77.06 169.29)" style="fill:url(#linear-gradient-2)"/><path d="M1115.78,381.93c-12.93,20-12.71,22.05-11.34,22.24s3.51-1.37,16.76-22.19,22.58-36,21.74-35.74S1128.72,362,1115.78,381.93Z" transform="translate(77.06 169.29)" style="fill:url(#linear-gradient-3)"/><path d="M1106.49,382.74c-10.49,22.82-10.25,25.36-8.89,25.23,1.38,0.18,3.31-2.38,14.28-26.13s17.71-38.44,16.81-38.06S1116.91,360.17,1106.49,382.74Z" transform="translate(77.06 169.29)" style="fill:url(#linear-gradient-4)"/><path d="M1095.47,387.21c-8.2,23.26-7.77,25.78-6.38,25.51,1.41,0.06,3.21-2.69,11.85-26.86s13.27-38.65,12.38-38.24S1103.63,364.18,1095.47,387.21Z" transform="translate(77.06 169.29)" style="fill:url(#linear-gradient-5)"/><path d="M1085.25,390.79c-5.38,23.56-4.74,26-3.32,25.58,1.4-.08,3-3,8.76-27.44s7.75-38.63,6.9-38.18S1090.59,367.46,1085.25,390.79Z" transform="translate(77.06 169.29)" style="fill:url(#linear-gradient-6)"/><path d="M1060.21,398.78c-1.49,27.5-.36,30.81,1.82,30.11,2,0,4.2-4,6-32,1.75-27.59-2.14-42.39-3.27-42.11S1061.55,371.68,1060.21,398.78Z" transform="translate(77.06 169.29)" style="fill:url(#linear-gradient-7)"/><path d="M1073.64,394.86c-1.52,24-.72,26.88.87,26.28,1.44,0,3.08-3.49,4.86-27.9,1.75-24-.64-37.25-1.47-37S1075.07,371.29,1073.64,394.86Z" transform="translate(77.06 169.29)" style="fill:url(#linear-gradient-8)"/><path d="M1047.5,404.71c0.28,27.57,1.54,30.68,3.72,29.88,2-.18,4-4.14,4-32.16-0.12-27.64-5.45-42.73-6.52-42.43S1047.08,377.49,1047.5,404.71Z" transform="translate(77.06 169.29)" style="fill:url(#linear-gradient-9)"/><path d="M1008.54,424.6c6.65,30.18,8.6,32.9,10.92,31.92,2.13-.55,3.77-4.6-3.13-34.65-7-29.74-17.83-47.6-18.75-47.39S1001.82,394.6,1008.54,424.6Z" transform="translate(77.06 169.29)" style="fill:url(#linear-gradient-10)"/><path d="M1023.73,416.19c5.52,29.75,7.13,32.84,9.19,32,1.85-.29,3.42-4.37-2.2-34.06-5.73-29.31-15.49-46.33-16.36-46.2S1018.11,386.7,1023.73,416.19Z" transform="translate(77.06 169.29)" style="fill:url(#linear-gradient-11)"/><path d="M1035,407.65c5.77,29.36,7.34,32.66,9.42,31.77,1.85-.24,3.44-4.52-2.33-33.83-5.9-28.85-16.08-44.86-17-44.74S1029.08,378.65,1035,407.65Z" transform="translate(77.06 169.29)" style="fill:url(#linear-gradient-12)"/><path d="M996,431.92c8.8,31.47,10.92,34,12.89,33.19,1.89-.53,2.91-4.2-6.32-35.22-9.3-30.81-20.83-51.19-21.55-51.14S987.2,400.47,996,431.92Z" transform="translate(77.06 169.29)" style="fill:url(#linear-gradient-13)"/><path d="M987.63,438.83c8.21,31.66,10.33,34,12.28,33.21,1.88-.58,2.86-4.07-5.85-35.29s-19.49-52.25-20.17-52.17S979.49,407.1,987.63,438.83Z" transform="translate(77.06 169.29)" style="fill:url(#linear-gradient-14)"/><path d="M968.2,453.1c7.5,35.65,9.91,37.6,12,37s3.15-3.85-5.23-38.8-18.47-60.7-19.09-60.69C955.35,390.45,960.87,417.1,968.2,453.1Z" transform="translate(77.06 169.29)" style="fill:url(#linear-gradient-15)"/><path d="M977.17,444.35c8.5,35.54,10.91,37.83,13.09,37.18s3.22-4.06-6.06-38.92-20.72-59.45-21.4-59.47S968.78,408.58,977.17,444.35Z" transform="translate(77.06 169.29)" style="fill:url(#linear-gradient-16)"/><path d="M942.87,476.24c7.42,39.89,11.25,40.06,13.64,39.27,2.85-1.62,3.3-4.07-6.11-42.8C941.1,433.48,933.93,401,933.58,401,933.32,400.71,936,435.29,942.87,476.24Z" transform="translate(77.06 169.29)" style="fill:url(#linear-gradient-17)"/><path d="M928.83,495.2c9.36,34.47,14.94,33.4,16.84,32.39,3.11-2.09,1.78-4-9.86-37.69a307.27,307.27,0,0,1-13.12-64.64C922.76,425.22,920.62,459.54,928.83,495.2Z" transform="translate(77.06 169.29)" style="fill:url(#linear-gradient-18)"/><path d="M916,512.73c11.77,29,19.89,26.81,21.11,25.67,3.54-2.47-.35-3.72-14.6-32.54-13.2-29.54-7-58.36-6.95-57.7C916,448.42,906.21,482.4,916,512.73Z" transform="translate(77.06 169.29)" style="fill:url(#linear-gradient-19)"/><path d="M954,460.68c8.19,41.34,11.5,42.4,14.08,41.6,2.75-1.34,3.75-4.44-6.19-44.53-10-40.36-20.18-71.88-20.66-71.93C940.76,385.48,946.13,418.52,954,460.68Z" transform="translate(77.06 169.29)" style="fill:url(#linear-gradient-20)"/><path d="M1138.39,384.07c-17.44,11.2-19.31,10.8-19.33,9.4-0.19-1.47,1.52-3.38,19.71-14.91s30.63-19.5,30.36-18.66S1155.68,372.85,1138.39,384.07Z" transform="translate(77.06 169.29)" style="fill:url(#linear-gradient-21)"/><path d="M1126.78,396.54c-20.21,9.6-22.3,9-22.12,7.52-0.06-1.56,2.16-3.43,23.14-13.39s34.49-16.54,34.13-15.65S1146.83,386.93,1126.78,396.54Z" transform="translate(77.06 169.29)" style="fill:url(#linear-gradient-22)"/><path d="M1147,370.7c-19.14,17-21.44,17.5-21.68,16.26-0.44-1.22,1.32-3.7,21.44-21.25s34.1-29.46,33.83-28.66S1165.85,353.73,1147,370.7Z" transform="translate(77.06 169.29)" style="fill:url(#linear-gradient-23)"/><path d="M1114.78,407.85c-22.92,6.8-25.53,6.23-25.13,4.82,0-1.42,3-3.12,26.78-10.33,23.65-7.27,37.31-10.92,36.88-10S1137.39,401.11,1114.78,407.85Z" transform="translate(77.06 169.29)" style="fill:url(#linear-gradient-24)"/><path d="M1108,414.91c-23.32,3.93-25.84,3.16-25.29,1.75,0.13-1.41,3.27-2.87,27.45-7.14,24-4.3,37.55-5.41,37.08-4.58S1131,411,1108,414.91Z" transform="translate(77.06 169.29)" style="fill:url(#linear-gradient-25)"/><path d="M1092.71,430.43c-27.52,0-30.84-1.35-30-3.48,0.13-2,4.29-3.93,32.35-4.2,27.64-.25,41.9,4.16,41.54,5.29S1119.78,430.6,1092.71,430.43Z" transform="translate(77.06 169.29)" style="fill:url(#linear-gradient-26)"/><path d="M1100.76,422.37c-23.73.11-26.71-.85-26-2.4,0.07-1.44,3.73-2.88,27.93-3.23,23.79-.33,36.28,2.75,36,3.57S1124,422.35,1100.76,422.37Z" transform="translate(77.06 169.29)" style="fill:url(#linear-gradient-27)"/><path d="M1082.53,439.88c-27.65-1.77-30.72-3.22-29.8-5.32,0.28-2,4.38-3.75,32.54-2.21,27.78,1.56,42.51,7.36,42.12,8.42S1109.8,441.75,1082.53,439.88Z" transform="translate(77.06 169.29)" style="fill:url(#linear-gradient-28)"/><path d="M1050.78,470.22c-29.75-8.4-32.22-10.58-31.14-12.83,0.7-2.12,4.7-3.46,34.39,5.1,29.46,8.63,46.78,20.24,46.46,21.21S1080.41,478.67,1050.78,470.22Z" transform="translate(77.06 169.29)" style="fill:url(#linear-gradient-29)"/><path d="M1064.57,458.82c-29.56-7.13-32.52-8.94-31.57-10.94,0.42-1.84,4.53-3.12,34.07,4.06,29.2,7.24,45.69,17.63,45.45,18.54S1093.88,466,1064.57,458.82Z" transform="translate(77.06 169.29)" style="fill:url(#linear-gradient-30)"/><path d="M1074.74,451.06c-29.23-7.29-32.42-9.08-31.41-11.08,0.35-1.84,4.69-3.13,33.91,4.15,28.8,7.32,44.28,18,44.08,18.9S1103.63,458.45,1074.74,451.06Z" transform="translate(77.06 169.29)" style="fill:url(#linear-gradient-31)"/><path d="M1042.37,480.9c-30.72-10.87-33-13.18-32.09-15.13,0.67-1.88,4.24-2.66,34.55,8.53s49.71,24.1,49.55,24.88S1073.13,491.73,1042.37,480.9Z" transform="translate(77.06 169.29)" style="fill:url(#linear-gradient-32)"/><path d="M1032.22,487.57c-30.7-10.44-32.65-12.78-31.83-14.71s4-2.63,34.33,8.19,50.64,23.09,50.47,23.85S1063.08,497.95,1032.22,487.57Z" transform="translate(77.06 169.29)" style="fill:url(#linear-gradient-33)"/><path d="M1015.56,505.61c-34.25-10.46-35.71-13.07-35.05-15.23,0.9-2.16,3.74-3,37.31,8.17,33.8,11.17,58.39,23.71,58.26,24.44C1076.21,523.68,1050.3,515.95,1015.56,505.61Z" transform="translate(77.06 169.29)" style="fill:url(#linear-gradient-34)"/><path d="M1025.76,496.51c-34.28-11.3-36.12-13.94-35.4-16.14s4-3,37.6,8.88,57.25,25.47,57.14,26.27C1085.2,516.27,1060.37,507.72,1025.76,496.51Z" transform="translate(77.06 169.29)" style="fill:url(#linear-gradient-35)"/><path d="M994.41,534c-38.88-11-38.56-14.59-37.69-17.06,1.84-2.73,4-3.29,41.6,9.45C1036.51,539,1068.08,550.49,1068,551,1068.31,551.38,1034.5,544.57,994.41,534Z" transform="translate(77.06 169.29)" style="fill:url(#linear-gradient-36)"/><path d="M981.15,545.27c-37.31-10.16-36.15-14.21-35.26-16.46,2.12-2.76,3.77-2.77,39.83,9.43,36.84,12,69.29,20.29,69.08,20.58C1055.11,559,1019.88,554.82,981.15,545.27Z" transform="translate(77.06 169.29)" style="fill:url(#linear-gradient-37)"/><path d="M969.41,557c-35.42-11.29-32.92-17.1-32-18.81,2.59-3,3.47-1.19,37.81,12.61,35.34,13.26,69.88,15.68,69.52,15.68C1045,566.22,1006.55,567,969.41,557Z" transform="translate(77.06 169.29)" style="fill:url(#linear-gradient-38)"/><path d="M1007.83,521.22c-39.76-11.94-40.25-15.29-39.36-17.94,1.56-2.72,4.31-3.67,42.77,9.75,38.92,13.44,69,27.52,69,28.17C1080.53,541.81,1048.58,532.93,1007.83,521.22Z" transform="translate(77.06 169.29)" style="fill:url(#linear-gradient-39)"/></g><g style="opacity:0.5"><path d="M68,366.76c-0.09.28,7.23,6.49,16.1,14.08,74.46,61.92,125.48,123.49,158.78,191.55,4.41,8.31,8.34,14.71,8.88,14.24s-2.53-7.74-6.88-16.11C211.7,502.26,160,441.38,84.69,379.73,75.72,372.11,68.12,366.38,68,366.76Z" transform="translate(77.06 169.29)" style="fill:url(#linear-gradient-40)"/><path d="M62.08,339.81c9.41,24.92,8.67,27.08,7.1,27s-3.54-2.25-13.08-28.11S40,293.87,40.83,294.33,52.64,315,62.08,339.81Z" transform="translate(77.06 169.29)" style="fill:url(#linear-gradient-41)"/><path d="M75.9,350.08c10.35,27.18,9.57,29.54,7.89,29.41S79.95,377,69.42,348.77s-17.8-48.68-16.87-48.16S65.53,323,75.9,350.08Z" transform="translate(77.06 169.29)" style="fill:url(#linear-gradient-42)"/><path d="M86.78,353.4c6.72,29.89,5.79,32.86,4.21,32.36-1.69-.14-3.34-3.67-10.4-34.8s-11.37-50.36-10.4-49.68S80.07,323.82,86.78,353.4Z" transform="translate(77.06 169.29)" style="fill:url(#linear-gradient-43)"/><path d="M98.79,361.53c3.88,29.83,2.73,32.73,1.13,32.05-1.69-.29-3.14-4-7.33-35.05s-6-49.48-5.07-48.77S94.9,332,98.79,361.53Z" transform="translate(77.06 169.29)" style="fill:url(#linear-gradient-44)"/><path d="M110.07,368.4c0.44,29.48-.95,32.24-2.53,31.36-1.65-.45-2.83-4.38-3.49-35s0.55-48.06,1.46-47.3S109.63,339.2,110.07,368.4Z" transform="translate(77.06 169.29)" style="fill:url(#linear-gradient-45)"/><path d="M137.92,384.28c-5.21,33.19-7.39,36.85-9.81,35.46-2.36-.55-4-5.84,1-39.71,4.91-33.37,13.31-50,14.58-49.42S143.21,351.61,137.92,384.28Z" transform="translate(77.06 169.29)" style="fill:url(#linear-gradient-46)"/><path d="M122.9,376.2c-4.26,29-6,32.25-7.7,31.13-1.72-.39-2.78-4.95,1.29-34.53,4-29.12,10.22-44.29,11.15-43.79S127.18,347.72,122.9,376.2Z" transform="translate(77.06 169.29)" style="fill:url(#linear-gradient-47)"/><path d="M151.59,394.59c-7.33,32.82-9.63,36.21-12,34.71-2.32-.71-3.78-6,3.4-39.38,7.15-33,17.35-49.61,18.55-49S159,362.22,151.59,394.59Z" transform="translate(77.06 169.29)" style="fill:url(#linear-gradient-48)"/><path d="M193,428.2c-15.59,34.32-18.61,37.07-21.13,35.31-2.4-1.2-3.33-6.45,12.52-40.55,15.93-33.7,33.36-52.26,34.4-51.79S208.65,394.12,193,428.2Z" transform="translate(77.06 169.29)" style="fill:url(#linear-gradient-49)"/><path d="M177,414.31c-14.14,34.1-16.84,37.37-19.08,35.84-2.14-.82-3-6.08,11.27-40.08,14.27-33.52,30.25-51.35,31.25-51S191.22,380.56,177,414.31Z" transform="translate(77.06 169.29)" style="fill:url(#linear-gradient-50)"/><path d="M165.78,401.28c-14.34,33.57-17,37.1-19.3,35.51-2.14-.76-3-6.27,11.37-39.77,14.36-32.92,30.57-49.44,31.62-49.07C190.51,348.47,180.18,368.17,165.78,401.28Z" transform="translate(77.06 169.29)" style="fill:url(#linear-gradient-51)"/><path d="M206.17,440.13c-18.49,35.31-21.65,37.77-23.81,36.33-2.12-1.11-2.41-5.75,16.48-40.43,18.92-34.4,37.85-55.79,38.69-55.54S224.62,404.82,206.17,440.13Z" transform="translate(77.06 169.29)" style="fill:url(#linear-gradient-52)"/><path d="M214.37,450.49c-17.83,35.7-20.95,37.9-23.08,36.51-2.1-1.17-2.38-5.59,15.93-40.62,18.34-34.87,36.51-57.4,37.31-57.13S232.13,414.7,214.37,450.49Z" transform="translate(77.06 169.29)" style="fill:url(#linear-gradient-53)"/><path d="M233.92,472.45c-18,40.63-21.37,42.34-23.76,41.1-2.37-1.4-2.79-5.39,16.09-45s37.44-67.74,38.17-67.56C265.16,401,251.81,431.36,233.92,472.45Z" transform="translate(77.06 169.29)" style="fill:url(#linear-gradient-54)"/><path d="M225.45,459.73c-19.16,40.25-22.62,42.37-25.05,41s-2.82-5.66,17.11-44.9,39.81-65.67,40.62-65.53C258.93,390.35,244.54,419.18,225.45,459.73Z" transform="translate(77.06 169.29)" style="fill:url(#linear-gradient-55)"/><path d="M258.28,506.48c-19,45.71-23.59,44.94-26.24,43.4-3-2.66-2.91-5.7,18.16-49.52,21-44.45,37.85-81.42,38.25-81.26C288.83,418.79,276.82,459.35,258.28,506.48Z" transform="translate(77.06 169.29)" style="fill:url(#linear-gradient-56)"/><path d="M270.22,532.67c-19.91,38.75-26.3,36.06-28.31,34.37-3.19-3.28-1.11-5.2,21.33-42.47a374.87,374.87,0,0,0,32.06-73.79C295.22,450.71,289.05,492.2,270.22,532.67Z" transform="translate(77.06 169.29)" style="fill:url(#linear-gradient-57)"/><path d="M281.11,556.85c-21.41,31.65-30.54,26.94-31.7,25.27-3.6-3.85,1.36-4.36,25.68-35.12,23.24-31.9,23.18-67.85,22.93-67.08C297.41,480.11,300.45,523.13,281.11,556.85Z" transform="translate(77.06 169.29)" style="fill:url(#linear-gradient-58)"/><path d="M249,485.11c-20.26,47.24-24.49,47.67-27.36,46.06-2.94-2.29-3.35-6.24,18.69-51.56C262.45,434,282.64,399,283.23,399,283.83,398.74,269,436.78,249,485.11Z" transform="translate(77.06 169.29)" style="fill:url(#linear-gradient-59)"/><path d="M48.38,346.89c18,17.79,20.29,17.78,20.67,16.13,0.6-1.71-1-4.42-19.73-22.79s-31.6-31-31.48-30S30.59,329.12,48.38,346.89Z" transform="translate(77.06 169.29)" style="fill:url(#linear-gradient-60)"/><path d="M59.07,364.72c21.67,16.59,24.32,16.4,24.49,14.58,0.46-1.85-1.71-4.64-24.21-21.85s-37-28.49-36.75-27.33S37.59,348.16,59.07,364.72Z" transform="translate(77.06 169.29)" style="fill:url(#linear-gradient-61)"/><path d="M41.56,328.77c18.51,25.2,21.14,26.32,21.75,24.9,0.83-1.35-.64-4.75-20.19-30.8S9.91,279.06,10,280.09,23.32,303.73,41.56,328.77Z" transform="translate(77.06 169.29)" style="fill:url(#linear-gradient-62)"/><path d="M70.52,381.26c25.62,13.93,28.88,13.91,28.76,12.12,0.38-1.69-2.74-4.47-29.33-19.12-26.37-14.68-41.75-22.5-41.46-21.34S45.25,367.47,70.52,381.26Z" transform="translate(77.06 169.29)" style="fill:url(#linear-gradient-63)"/><path d="M76.84,391.41c26.83,10.61,30,10.33,29.73,8.51,0.2-1.71-3.18-4.26-30.94-15.49-27.54-11.22-43.44-16-43.08-14.88S50.33,380.91,76.84,391.41Z" transform="translate(77.06 169.29)" style="fill:url(#linear-gradient-64)"/><path d="M91.11,413.8c32.85,6.93,37.14,6.22,36.68,3.47,0.34-2.39-4.12-5.78-37.54-13.22-32.91-7.31-51-5.67-50.91-4.24S58.77,407.13,91.11,413.8Z" transform="translate(77.06 169.29)" style="fill:url(#linear-gradient-65)"/><path d="M83.56,402.14c28.29,6.15,32.08,5.77,31.61,3.73,0.29-1.74-3.72-4.39-32.5-10.95-28.3-6.43-44-5.93-43.85-4.87C39.09,391.13,55.78,396.21,83.56,402.14Z" transform="translate(77.06 169.29)" style="fill:url(#linear-gradient-66)"/><path d="M100.87,427.66c33.44,4.91,37.48,4,36.9,1.21,0.17-2.41-4.28-5.59-38.26-10.89-33.54-5.19-52.59-2-52.39-.64S67.85,423,100.87,427.66Z" transform="translate(77.06 169.29)" style="fill:url(#linear-gradient-67)"/><path d="M131.05,471.91c37.63-2.47,41.13-4.45,40.41-7.4-0.29-2.71-4.72-5.33-42.32-2.64-37.34,2.82-61,12.28-60.81,13.52S93.55,474.48,131.05,471.91Z" transform="translate(77.06 169.29)" style="fill:url(#linear-gradient-68)"/><path d="M117.48,454.82c37.08-1,41.07-2.41,40.44-5,0-2.3-4.62-4.87-41.68-3.8-36.68,1.23-59,9.44-58.94,10.58S80.68,456,117.48,454.82Z" transform="translate(77.06 169.29)" style="fill:url(#linear-gradient-69)"/><path d="M107.32,443c36.73-1.28,41-2.61,40.29-5.25,0-2.29-4.8-4.93-41.52-3.66-36.22,1.43-57.4,10.21-57.39,11.37S71,444.45,107.32,443Z" transform="translate(77.06 169.29)" style="fill:url(#linear-gradient-70)"/><path d="M138.38,486.79c39.41-5.17,42.67-7.37,42.13-9.91-0.32-2.41-4.39-4.25-43.39,1.41s-65.43,16.14-65.44,17.11S98.92,491.91,138.38,486.79Z" transform="translate(77.06 169.29)" style="fill:url(#linear-gradient-71)"/><path d="M148.79,497.33c39.28-4.67,42.2-7,41.71-9.48s-4.15-4.17-43,1.06-66.28,14.7-66.27,15.64S109.33,501.88,148.79,497.33Z" transform="translate(77.06 169.29)" style="fill:url(#linear-gradient-72)"/><path d="M164.09,523.08c43.52-3.79,45.93-6.53,45.69-9.28-0.53-2.8-3.7-4.52-46.58.28-43.16,4.75-75.68,13.47-75.72,14.38C87.14,529.25,120,526.6,164.09,523.08Z" transform="translate(77.06 169.29)" style="fill:url(#linear-gradient-73)"/><path d="M154.23,509.63c43.77-4.79,46.64-7.46,46.33-10.27s-4-4.61-47.12,1.06-74.77,15.86-74.85,16.83C78.29,518.12,110.09,514.22,154.23,509.63Z" transform="translate(77.06 169.29)" style="fill:url(#linear-gradient-74)"/><path d="M182.13,562.28c49.18-3.23,49.71-7.62,49.3-10.79-1.5-3.72-4-4.95-52,.72-48.79,5.45-89.37,11.09-89.33,11.7C89.54,564.31,131.61,564.75,182.13,562.28Z" transform="translate(77.06 169.29)" style="fill:url(#linear-gradient-75)"/><path d="M195.08,579.14c47.1-2.65,46.73-7.78,46.25-10.69-1.82-3.83-3.79-4.26-49.92,1.14-47,5-87.82,6.62-87.65,7C103.34,576.78,146.45,580.7,195.08,579.14Z" transform="translate(77.06 169.29)" style="fill:url(#linear-gradient-76)"/><path d="M206.12,596.08c45.12-4.49,43.62-12,43-14.32-2.32-4.27-3.83-2.3-48.32,5.45-45.53,6.85-87.36,1-86.93,1.06C113.61,587.94,159.25,598.66,206.12,596.08Z" transform="translate(77.06 169.29)" style="fill:url(#linear-gradient-77)"/><path d="M169.35,543.67c50.47-4.16,51.91-8,51.51-11.41-1.17-3.65-4.21-5.47-53.51.78-49.84,6.16-89.33,15.31-89.42,16.11C77.38,549.78,117.76,547.3,169.35,543.67Z" transform="translate(77.06 169.29)" style="fill:url(#linear-gradient-78)"/></g></g></svg>