<?xml version="1.0" encoding="utf-8"?>
<!-- Generator: Adobe Illustrator 19.2.1, SVG Export Plug-In . SVG Version: 6.00 Build 0)  -->
<svg id="glass" x="0px" y="0px" viewBox="0 0 23 23" style="enable-background:new 0 0 23 23;">
	<g>
		<g>
			<polygon style="fill:#E7E8EB;" points="0.1,22.5 0.9,11.6 1.8,0.6 11.9,11.2 22,21.8 11,22.1 		"/>
			<polygon style="fill:#CFD7D7;" points="0.1,22.5 3.8,14.5 7.4,6.6 11.9,11.2 16.3,15.9 8.2,19.2 		"/>
		</g>
		<g>
			<polygon style="fill:#B8BFC0;" points="1.8,0.7 11.9,11.3 21.9,21.8 22.9,15.3 8.3,0 		"/>
			<polygon style="fill:#E7E8EB;" points="15.6,7.6 7.4,6.6 11.9,11.3 16.3,15.9 		"/>
			<polygon style="fill:#CFD7D7;" points="7.4,6.6 8.3,0 8.3,0 1.8,0.7 		"/>
			<polygon style="fill:#CFD7D7;" points="16.3,16 22.9,15.3 22.9,15.3 21.9,21.8 		"/>
		</g>
	</g>
</svg>
