<?xml version="1.0" encoding="utf-8"?>
<!-- Generator: Adobe Illustrator 16.0.0, SVG Export Plug-In . SVG Version: 6.00 Build 0)  -->
<!DOCTYPE svg PUBLIC "-//W3C//DTD SVG 1.1//EN" "http://www.w3.org/Graphics/SVG/1.1/DTD/svg11.dtd">
<svg version="1.1" id="Layer_1" xmlns="http://www.w3.org/2000/svg" xmlns:xlink="http://www.w3.org/1999/xlink" x="0px" y="0px"
	 width="1920px" height="300px" viewBox="0 0 1920 300" enable-background="new 0 0 1920 300" xml:space="preserve">
<g>
	<defs>
		<rect id="SVGID_1_" width="1920" height="300"/>
	</defs>
	<clipPath id="SVGID_2_">
		<use xlink:href="#SVGID_1_"  overflow="visible"/>
	</clipPath>
	<g clip-path="url(#SVGID_2_)">
		<linearGradient id="SVGID_3_" gradientUnits="userSpaceOnUse" x1="0" y1="250.3125" x2="1995.0977" y2="250.3125">
			<stop  offset="0" style="stop-color:#B4A93D"/>
			<stop  offset="1" style="stop-color:#7F7B29"/>
		</linearGradient>
		<path fill="url(#SVGID_3_)" d="M0,273.486c0,0,160.241-65.75,287.356-37.259s433.948,100.818,850.361,17.534
			c416.413-83.284,613.762-56.614,782.421-2.191c168.658,54.423,0,48.216,0,48.216H0V273.486z"/>
		<g>
			<g>
				<polygon fill="#F5886F" points="1045.972,241.797 1048.75,233.452 1032.994,217.694 1030.213,226.041 				"/>
				<polygon fill="#F8A390" points="1045.972,241.797 1037.629,244.579 1021.869,228.818 1030.213,226.041 				"/>
			</g>
			<g>
				<path fill="#5B6374" d="M1083.828,281.313c0.428,0,0.854-0.163,1.18-0.487c0.65-0.65,0.65-1.708,0-2.358l-53.24-53.236
					c-0.648-0.65-1.707-0.65-2.355,0c-0.653,0.651-0.653,1.708,0,2.358l53.238,53.236
					C1082.975,281.149,1083.402,281.313,1083.828,281.313z"/>
			</g>
			<g>
				<path fill="#31373E" d="M1083.828,280.479c0.215,0,0.428-0.08,0.59-0.243c0.326-0.325,0.326-0.854,0-1.18l-53.238-53.235
					c-0.326-0.326-0.854-0.326-1.18,0s-0.326,0.854,0,1.18l53.238,53.235C1083.402,280.398,1083.615,280.479,1083.828,280.479z"/>
			</g>
		</g>
		<g>
			<g>
				<polygon fill="#E6E8EB" points="1363.331,234.272 1364.192,223.361 1365.052,212.449 1375.132,223.024 1385.212,233.602 
					1374.272,233.936 				"/>
				<polygon fill="#CED6D7" points="1363.331,234.272 1367.011,226.317 1370.689,218.364 1375.132,223.024 1379.576,227.688 
					1371.454,230.979 				"/>
			</g>
			<g>
				<polygon fill="#B8BFC0" points="1365.024,212.477 1375.104,223.051 1385.184,233.628 1386.16,227.142 1371.548,211.812 				"/>
				<polygon fill="#E6E8EB" points="1378.892,219.441 1370.661,218.392 1375.104,223.051 1379.548,227.715 				"/>
				<polygon fill="#CED6D7" points="1370.625,218.352 1371.555,211.819 1371.548,211.812 1365.024,212.477 				"/>
				<polygon fill="#CED6D7" points="1379.585,227.753 1386.153,227.136 1386.16,227.142 1385.184,233.628 				"/>
			</g>
		</g>
		<g>
			<g>
				<polygon fill="#E6E8EB" points="290.547,258.091 283.089,257.502 275.631,256.914 282.859,250.024 290.089,243.135 
					290.317,250.611 				"/>
				<polygon fill="#CED6D7" points="290.547,258.091 285.11,255.575 279.674,253.061 282.859,250.024 286.046,246.986 
					288.296,252.538 				"/>
			</g>
			<g>
				<polygon fill="#B8BFC0" points="275.649,256.933 282.877,250.043 290.107,243.153 285.673,242.485 275.195,252.475 				"/>
				<polygon fill="#E6E8EB" points="280.41,247.454 279.692,253.08 282.877,250.043 286.065,247.006 				"/>
				<polygon fill="#CED6D7" points="279.665,253.104 275.2,252.469 275.195,252.475 275.649,256.933 				"/>
				<polygon fill="#CED6D7" points="286.091,246.98 285.669,242.491 285.673,242.485 290.107,243.153 				"/>
			</g>
		</g>
		<g>
			<circle fill="#E5B88F" cx="1260.054" cy="233.996" r="3.25"/>
			<circle fill="#E5B88F" cx="1257.546" cy="246.235" r="3.25"/>
			<circle fill="#E5B88F" cx="1266.126" cy="254.813" r="3.25"/>
			<circle fill="#E5B88F" cx="1274.641" cy="247.723" r="3.25"/>
			<circle fill="#E5B88F" cx="1269.104" cy="237.783" r="3.25"/>
			<circle fill="#E5B88F" cx="1278.43" cy="256.69" r="3.25"/>
			<circle fill="#E5B88F" cx="1286.653" cy="246.006" r="3.25"/>
			<circle fill="#E5B88F" cx="1280.08" cy="239.305" r="3.25"/>
			<circle fill="#E5B88F" cx="1280.953" cy="229.494" r="3.25"/>
			<circle fill="#E5B88F" cx="1288.302" cy="235.483" r="3.25"/>
			<circle fill="#E5B88F" cx="1292.251" cy="227" r="3.25"/>
			<circle fill="#E5B88F" cx="1294.292" cy="241.86" r="3.25"/>
			<circle fill="#E5B88F" cx="1298.404" cy="233.086" r="3.25"/>
			<circle fill="#E5B88F" cx="1305.235" cy="226.966" r="3.25"/>
			<circle fill="#E5B88F" cx="1305.592" cy="239.366" r="3.25"/>
			<circle fill="#E5B88F" cx="1240.873" cy="241.932" r="3.25"/>
		</g>
		<g>
			<circle fill="#E5B88F" cx="223.097" cy="249.655" r="1.761"/>
			<circle fill="#E5B88F" cx="226.881" cy="244.041" r="1.761"/>
			<circle fill="#E5B88F" cx="224.354" cy="237.97" r="1.761"/>
			<circle fill="#E5B88F" cx="218.623" cy="239.765" r="1.761"/>
			<circle fill="#E5B88F" cx="219.345" cy="245.888" r="1.761"/>
			<circle fill="#E5B88F" cx="218.576" cy="234.489" r="1.761"/>
			<circle fill="#E5B88F" cx="212.25" cy="238.144" r="1.761"/>
			<circle fill="#E5B88F" cx="214.159" cy="242.859" r="1.761"/>
			<circle fill="#E5B88F" cx="211.696" cy="247.595" r="1.762"/>
			<circle fill="#E5B88F" cx="209.25" cy="243.076" r="1.761"/>
			<circle fill="#E5B88F" cx="205.52" cy="246.511" r="1.761"/>
			<circle fill="#E5B88F" cx="207.566" cy="238.644" r="1.762"/>
			<circle fill="#E5B88F" cx="203.694" cy="242.191" r="1.761"/>
			<circle fill="#E5B88F" cx="199.007" cy="243.847" r="1.761"/>
			<circle fill="#E5B88F" cx="201.389" cy="237.56" r="1.761"/>
			<circle fill="#E5B88F" cx="234.347" cy="249.64" r="1.761"/>
		</g>
		<circle fill="#E6776D" cx="1240.594" cy="248.912" r="3.669"/>
		<circle fill="#E6776D" cx="1187.002" cy="257.552" r="3.669"/>
		<circle fill="#E6776D" cx="1246.823" cy="260.089" r="3.669"/>
		<circle fill="#E6776D" cx="1248.997" cy="246.782" r="3.669"/>
		<circle fill="#E6776D" cx="1254.915" cy="254.712" r="3.669"/>
		<circle fill="#E6776D" cx="1179.613" cy="248.977" r="3.669"/>
		<g>
			<circle fill="#E5B88F" cx="1428.93" cy="209.588" r="3.25"/>
			<circle fill="#E5B88F" cx="1422.395" cy="220.235" r="3.25"/>
			<circle fill="#E5B88F" cx="1427.531" cy="231.228" r="3.25"/>
			<circle fill="#E5B88F" cx="1437.955" cy="227.469" r="3.25"/>
			<circle fill="#E5B88F" cx="1436.143" cy="216.236" r="3.25"/>
			<circle fill="#E5B88F" cx="1438.455" cy="237.191" r="3.25"/>
			<circle fill="#E5B88F" cx="1449.831" cy="229.956" r="3.25"/>
			<circle fill="#E5B88F" cx="1445.94" cy="221.413" r="3.25"/>
			<circle fill="#E5B88F" cx="1450.109" cy="212.49" r="3.25"/>
			<circle fill="#E5B88F" cx="1454.974" cy="220.628" r="3.25"/>
			<circle fill="#E5B88F" cx="1461.581" cy="214.002" r="3.25"/>
			<circle fill="#E5B88F" cx="1458.427" cy="228.667" r="3.25"/>
			<circle fill="#E5B88F" cx="1465.287" cy="221.823" r="3.25"/>
			<circle fill="#E5B88F" cx="1473.796" cy="218.403" r="3.25"/>
			<circle fill="#E5B88F" cx="1469.899" cy="230.18" r="3.25"/>
			<circle fill="#E5B88F" cx="1408.191" cy="210.499" r="3.25"/>
		</g>
		<g>
			<circle fill="#E5B88F" cx="1479.271" cy="225.388" r="3.25"/>
			<circle fill="#E5B88F" cx="1483.598" cy="237.107" r="3.25"/>
			<circle fill="#E5B88F" cx="1495.412" cy="239.869" r="3.25"/>
			<circle fill="#E5B88F" cx="1498.904" cy="229.353" r="3.25"/>
			<circle fill="#E5B88F" cx="1488.957" cy="223.831" r="3.25"/>
			<circle fill="#E5B88F" cx="1506.854" cy="234.973" r="3.25"/>
			<circle fill="#E5B88F" cx="1508.204" cy="221.558" r="3.25"/>
			<circle fill="#E5B88F" cx="1499.084" cy="219.333" r="3.25"/>
			<circle fill="#E5B88F" cx="1494.65" cy="210.539" r="3.25"/>
			<circle fill="#E5B88F" cx="1504.054" cy="211.748" r="3.25"/>
			<circle fill="#E5B88F" cx="1512.507" cy="214.006" r="3.25"/>
			<circle fill="#E5B88F" cx="1467.163" cy="242.248" r="3.25"/>
		</g>
		<g opacity="0.2">
			<g>
				<path fill="#705E2D" d="M1469.003,334.021l-1.854-34.231c0,0-1.729-7.499,2.915-11.878c4.646-4.379,10.087-15.375,10.087-15.375
					"/>
				<path fill="#705E2D" d="M1503.618,294.09c0,0-20.124,1.766-26.766,2.662c-6.642,0.894-7.213,1.451-7.213,1.451l-2.112,2.575
					l-0.324,0.021"/>
				<path fill="#705E2D" d="M1467.627,310.982c0,0,0.153-8.494-8.981-8.161C1458.646,302.821,1457.963,312.04,1467.627,310.982z"/>
				<path fill="#705E2D" d="M1468.383,323.119c0,0,0.153-8.494-8.98-8.161C1459.402,314.958,1461.761,326.819,1468.383,323.119z"/>
				<path fill="#705E2D" d="M1468.262,315.563c0,0,8.465-0.726,7.189-9.776C1475.451,305.787,1466.213,306.06,1468.262,315.563z"/>
				<path fill="#705E2D" d="M1470.646,297.746c0,0-2.884,7.705,7.545,8.769C1478.19,306.515,1478.182,296.735,1470.646,297.746z"/>
				<path fill="#705E2D" d="M1474.718,282.107c0,0,2.348-3.404,6.666,0.327C1481.384,282.435,1476.719,286.081,1474.718,282.107z"/>
				<path fill="#705E2D" d="M1470.099,279.945c0,0,3.743,0.486,1.271,6.553C1471.37,286.498,1466.718,282.837,1470.099,279.945z"/>
				<g>
					<path fill="#705E2D" d="M1471.864,286.445c0,0,1.46-3.768,7.136,0.349C1479,286.794,1474.008,290.698,1471.864,286.445z"/>
					<path fill="#705E2D" d="M1471.2,286.662c0,0,1.702-0.476,4.295,0.13"/>
				</g>
				<path fill="#705E2D" d="M1477.869,276.921c0,0,2.172-2.377-1.969-4.194C1475.9,272.727,1475.163,276.532,1477.869,276.921z"/>
				<path fill="#705E2D" d="M1474.869,281.737c0,0,2.536-2.775-2.297-4.896C1472.572,276.842,1470.84,281.302,1474.869,281.737z"/>
				<path fill="#705E2D" d="M1481.458,277.045c0,0-1.405,4.021-4.546,1.501C1476.912,278.546,1478.381,275.892,1481.458,277.045z"/>
				<path fill="#705E2D" d="M1504.162,297.66c0,0-4.192,0.749-3.538-3.224C1500.624,294.437,1503.657,294.413,1504.162,297.66z"/>
				<path fill="#705E2D" d="M1468.157,290.579c0,0-6.596-1.481-4.781-7.106C1463.376,283.473,1469.354,282.918,1468.157,290.579z"/>
				<path fill="#705E2D" d="M1475.844,291.06c0,0-4.17,5.32-8.47,1.267C1467.374,292.326,1469.439,286.689,1475.844,291.06z"/>
				<path fill="#705E2D" d="M1479.418,296.437c0,0-6.101-5.652,3.035-11.735C1482.453,284.701,1486.888,294.667,1479.418,296.437z"
					/>
				<path fill="#705E2D" d="M1479.418,296.437c0,0-3.508,2.641,3.857,7.25C1483.275,303.687,1484.852,293.368,1479.418,296.437z"/>
				<path fill="#705E2D" d="M1487.169,295.621c-0.086,0.032-5.907-4.159,2.222-11.005
					C1489.391,284.616,1493.928,293.067,1487.169,295.621z"/>
				<path fill="#705E2D" d="M1491.146,302.883"/>
				<path fill="#705E2D" d="M1487.169,295.621c0,0-6.271,4.106,3.291,8.7C1490.46,304.321,1493.376,295.365,1487.169,295.621z"/>
				<path fill="#705E2D" d="M1494.682,294.901c0,0-5.956-3.85,1.713-10.055C1496.395,284.847,1500.801,294.059,1494.682,294.901z"/>
				<path fill="#705E2D" d="M1494.682,294.901c0,0-3.963,2.028,3.051,6.979C1497.732,301.88,1499.514,295.116,1494.682,294.901z"/>
			</g>
			<g>
				<path fill="#705E2D" d="M1365.233,309.427c0.499-0.209,14.662-17.142,18.503-33.979c0,0,0.133-2.242,2.694-4.4"/>
				<path fill="#705E2D" d="M1371.322,301.543c0,0,2.891-6.27-6.908-9.497C1364.414,292.046,1362.412,301.878,1371.322,301.543z"/>
				<path fill="#705E2D" d="M1380.279,285.646c0,0,4.158,5.51,11.633-1.6C1391.912,284.046,1384.193,277.635,1380.279,285.646z"/>
				<path fill="#705E2D" d="M1376.27,293.568c0,0,3.384-6.776-6.557-9.307C1369.713,284.262,1367.616,293.994,1376.27,293.568z"/>
				<path fill="#705E2D" d="M1371.691,301.099c0,0,1.618,7.399,10.945,3.132C1382.637,304.23,1378.16,295.336,1371.691,301.099z"/>
				<g>
					<path fill="#705E2D" d="M1377.286,292.846c0,0,1.463-6.308,11.4-1.062C1388.687,291.784,1381.648,299.107,1377.286,292.846z"/>
					<path fill="#705E2D" d="M1376.281,293.341c0,0,2.592-1.142,6.842-0.768"/>
				</g>
				<g>
					<path fill="#705E2D" d="M1379.823,284.727c0,0,3.467-5.471-7.247-8.862C1372.576,275.864,1372.303,286.017,1379.823,284.727z"
						/>
					<path fill="#705E2D" d="M1380.178,285.791c0,0-1.008-2.648-4.258-5.413"/>
				</g>
				<path fill="#705E2D" d="M1382.969,277.774c0,0,0.073-6.814-7.662-5.337C1375.307,272.438,1376.393,279.64,1382.969,277.774z"/>
				<path fill="#705E2D" d="M1382.969,277.774c0,0,1.872-4.605,7.58-3.572C1390.549,274.202,1389.315,280.841,1382.969,277.774z"/>
				<path fill="#705E2D" d="M1383.892,274.796c0,0-2.384-5.928,4.728-8.979C1388.619,265.816,1391.073,271.968,1383.892,274.796z"/>
			</g>
			<g>
				<path fill="#705E2D" d="M1495.876,323.501c0.521-0.146,16.66-15.208,22.542-31.446c0,0,0.408-2.208,3.216-4.035"/>
				<path fill="#705E2D" d="M1502.889,316.426c0,0,3.641-5.865-5.688-10.274C1497.201,306.151,1494.006,315.663,1502.889,316.426z"
					/>
				<path fill="#705E2D" d="M1513.732,301.751c0,0,3.45,5.979,11.743-0.157C1525.476,301.594,1518.604,294.282,1513.732,301.751z"/>
				<path fill="#705E2D" d="M1508.779,309.12c0,0,4.192-6.31-5.361-10.042C1503.418,299.078,1500.14,308.479,1508.779,309.12z"/>
				<path fill="#705E2D" d="M1503.311,316.03c0,0,0.695,7.543,10.478,4.454C1513.788,320.484,1510.439,311.107,1503.311,316.03z"/>
				<g>
					<path fill="#705E2D" d="M1509.878,308.528c0,0,2.228-6.081,11.444,0.35C1521.322,308.878,1513.436,315.278,1509.878,308.528z"
						/>
					<path fill="#705E2D" d="M1508.818,308.896c0,0,2.714-0.814,6.886,0.079"/>
				</g>
				<g>
					<path fill="#705E2D" d="M1513.395,300.783c0,0,4.111-5.003-6.104-9.688C1507.291,291.096,1505.772,301.139,1513.395,300.783z"
						/>
					<path fill="#705E2D" d="M1513.615,301.883c0,0-0.675-2.752-3.561-5.895"/>
				</g>
				<path fill="#705E2D" d="M1517.369,294.271c0,0,0.91-6.754-6.947-6.239C1510.422,288.031,1510.615,295.313,1517.369,294.271z"/>
				<path fill="#705E2D" d="M1517.369,294.271c0,0,2.426-4.341,7.963-2.614C1525.332,291.656,1523.293,298.093,1517.369,294.271z"/>
				<path fill="#705E2D" d="M1518.652,291.429c0,0-1.636-6.177,5.796-8.331C1524.448,283.098,1526.127,289.504,1518.652,291.429z"/>
			</g>
			<g>
				<path fill="#705E2D" d="M1467.451,308.345c-0.117-0.53-14.295-17.45-30.194-24.192c0,0-2.185-0.524-3.858-3.425"/>
				<path fill="#705E2D" d="M1460.762,300.963c0,0-5.663-3.948-10.563,5.131C1450.198,306.094,1459.525,309.793,1460.762,300.963z"
					/>
				<path fill="#705E2D" d="M1446.688,289.35c0,0,6.155-3.125,0.471-11.733C1447.158,277.616,1439.49,284.088,1446.688,289.35z"/>
				<path fill="#705E2D" d="M1453.781,294.691c0,0-6.076-4.523-10.314,4.816C1443.467,299.508,1452.681,303.284,1453.781,294.691z"
					/>
				<path fill="#705E2D" d="M1460.39,300.521c0,0,7.569-0.292,5.008-10.224C1465.397,290.298,1455.854,293.139,1460.39,300.521z"/>
				<g>
					<path fill="#705E2D" d="M1453.249,293.562c0,0-5.953-2.549,0.96-11.409C1454.209,282.152,1460.181,290.37,1453.249,293.562z"/>
					<path fill="#705E2D" d="M1453.56,294.64c0,0-0.668-2.753,0.447-6.871"/>
				</g>
				<g>
					<path fill="#705E2D" d="M1445.703,289.636c0,0-4.776-4.372-10,5.577C1435.703,295.213,1445.65,297.267,1445.703,289.636z"/>
					<path fill="#705E2D" d="M1446.813,289.476c0,0-2.785,0.526-6.078,3.24"/>
				</g>
				<path fill="#705E2D" d="M1439.412,285.319c0,0-6.696-1.271-6.602,6.603C1432.811,291.922,1440.092,292.12,1439.412,285.319z"/>
				<path fill="#705E2D" d="M1439.412,285.319c0,0-4.204-2.654-2.185-8.092C1437.228,277.228,1443.547,279.608,1439.412,285.319z"/>
				<path fill="#705E2D" d="M1436.643,283.886c0,0-6.255,1.303-8.008-6.233C1428.635,277.652,1435.121,276.319,1436.643,283.886z"/>
			</g>
			<g>
				<path fill="#705E2D" d="M1393.297,324.907c0,0,4.418-11.861,2.528-21.834c-1.889-9.973,2.688-17.418,2.688-17.418"/>
				<path fill="#705E2D" d="M1396.093,312.392c0,0-1.662-6.941-10.693-4.993C1385.399,307.398,1389.077,317.068,1396.093,312.392z"
					/>
				<g>
					<path fill="#705E2D" d="M1397.085,311.453c0,0-0.518-6.455,10.542-4.466C1407.627,306.987,1403.139,316.1,1397.085,311.453z"/>
					<path fill="#705E2D" d="M1396.275,312.23c0,0,2.126-1.875,6.289-2.806"/>
				</g>
				<path fill="#705E2D" d="M1395.825,303.073c0,0-1.081-7.972-10.588-6.898C1385.237,296.175,1388.794,307.075,1395.825,303.073z"
					/>
				<path fill="#705E2D" d="M1395.825,303.073c0,0-0.417-5.902,8.983-6.658C1404.809,296.415,1400.699,307.537,1395.825,303.073z"/>
				<path fill="#705E2D" d="M1394.854,320.595c0,0,1.345-5.762,10.548-3.706C1405.402,316.889,1398.19,326.3,1394.854,320.595z"/>
				<path fill="#705E2D" d="M1395.703,294.002c0,0-1.11-5.414-6.444-4.36C1389.259,289.642,1390.871,296.214,1395.703,294.002z"/>
				<path fill="#705E2D" d="M1395.458,296.043c0,0,0.563-3.923,5.645-3.882C1401.103,292.161,1398.701,299.935,1395.458,296.043z"/>
				<path fill="#705E2D" d="M1396.985,289.019c0,0,0.696-3.32-2.899-3.957C1394.086,285.062,1393.542,288.804,1396.985,289.019z"/>
				<path fill="#705E2D" d="M1396.647,290.014c0,0,1.178-2.19,4.414-1.803C1401.062,288.211,1399.773,291.443,1396.647,290.014z"/>
				<path fill="#705E2D" d="M1397.787,286.962c0,0-1.354-2.761,1.965-4.202C1399.752,282.76,1401.017,285.866,1397.787,286.962z"/>
			</g>
			<g>
				<path fill="#705E2D" d="M1441.271,315.781c0,0-2.229-12.46-8.929-20.087c-6.698-7.626-6.543-16.363-6.543-16.363"/>
				<path fill="#705E2D" d="M1437.313,303.583c0,0-4.962-5.133-11.746,1.14C1425.566,304.723,1433.649,311.179,1437.313,303.583z"/>
				<g>
					<path fill="#705E2D" d="M1437.688,302.27c0,0-3.729-5.293,6.808-9.206C1444.496,293.063,1445.265,303.191,1437.688,302.27z"/>
					<path fill="#705E2D" d="M1437.388,303.35c0,0,0.878-2.693,3.989-5.613"/>
				</g>
				<path fill="#705E2D" d="M1432.343,295.694c0,0-4.985-6.313-12.626-0.554C1419.717,295.141,1428.323,302.717,1432.343,295.694z"
					/>
				<path fill="#705E2D" d="M1432.343,295.694c0,0-3.361-4.868,4.348-10.3C1436.69,285.395,1438.811,297.061,1432.343,295.694z"/>
				<path fill="#705E2D" d="M1440.417,311.275c0,0-1.771-5.646,7.198-8.555C1447.615,302.721,1446.191,314.491,1440.417,311.275z"/>
				<path fill="#705E2D" d="M1427.623,287.947c0,0-3.709-4.097-7.766-0.477C1419.857,287.471,1424.589,292.31,1427.623,287.947z"/>
				<path fill="#705E2D" d="M1428.45,289.829c0,0-1.509-3.664,2.886-6.214C1431.336,283.615,1433.223,291.53,1428.45,289.829z"/>
				<path fill="#705E2D" d="M1426.194,283.005c0,0-1.09-3.215-4.51-1.932C1421.685,281.073,1423.119,284.571,1426.194,283.005z"/>
				<path fill="#705E2D" d="M1426.408,284.032c0,0-0.1-2.484,2.885-3.796C1429.293,280.236,1429.826,283.674,1426.408,284.032z"/>
				<path fill="#705E2D" d="M1425.837,280.825c0,0-2.569-1.688-0.444-4.617C1425.393,276.208,1428.062,278.239,1425.837,280.825z"/>
			</g>
			<g>
				<path fill="#705E2D" d="M1391.073,325.071c0,0-21.254-5.125-25.415-23.636"/>
				<path fill="#705E2D" d="M1381.472,321.102c0,0-4.021-5.828,2.926-10.343C1384.397,310.759,1389.325,319.269,1381.472,321.102z"
					/>
				<path fill="#705E2D" d="M1381.472,321.102c0,0-5.024-3-7.259,2.699C1374.213,323.801,1380.419,325.987,1381.472,321.102z"/>
				<path fill="#705E2D" d="M1375.319,316.871c0,0-5.436-3.104-8.374,2.097C1366.945,318.968,1373.41,321.534,1375.319,316.871z"/>
				<path fill="#705E2D" d="M1376.035,317.462c0,0-2.762-5.796,3.666-8.393C1379.701,309.069,1381.999,315.898,1376.035,317.462z"/>
				<path fill="#705E2D" d="M1372.015,313.848c0,0-3.154-2.953-6.036-0.394C1365.979,313.454,1368.118,316.688,1372.015,313.848z"/>
				<path fill="#705E2D" d="M1369.592,310.728c0,0-2.647-2.479-5.066-0.331C1364.525,310.396,1366.321,313.111,1369.592,310.728z"/>
				<path fill="#705E2D" d="M1372.139,313.931c0,0-1.417-5.139,2.693-6.577C1374.832,307.354,1376.794,312.573,1372.139,313.931z"/>
				<path fill="#705E2D" d="M1369.66,310.486c0,0-1.071-3.88,2.033-4.967C1371.693,305.52,1373.176,309.463,1369.66,310.486z"/>
				<path fill="#705E2D" d="M1367.721,307.352c0,0-0.75-2.875,1.6-3.912C1369.32,303.439,1370.459,305.917,1367.721,307.352z"/>
				<path fill="#705E2D" d="M1367.624,307.121c0,0-1.512-1.753-3.771-0.525C1363.853,306.596,1365.202,308.936,1367.624,307.121z"/>
				<path fill="#705E2D" d="M1366.633,304.763c0,0-3.732-1.433-1.101-5.037C1365.532,299.726,1367.83,301.758,1366.633,304.763z"/>
			</g>
			<g>
				<path fill="#705E2D" d="M1432.8,312.389c0,0-21.254-5.127-25.416-23.637"/>
				<path fill="#705E2D" d="M1423.198,308.418c0,0-4.021-5.826,2.926-10.342C1426.124,298.076,1431.052,306.586,1423.198,308.418z"
					/>
				<path fill="#705E2D" d="M1423.198,308.418c0,0-5.024-2.998-7.26,2.699C1415.938,311.117,1422.145,313.305,1423.198,308.418z"/>
				<path fill="#705E2D" d="M1417.044,304.188c0,0-5.435-3.105-8.372,2.097C1408.672,306.285,1415.137,308.851,1417.044,304.188z"/>
				<path fill="#705E2D" d="M1417.762,304.778c0,0-2.763-5.797,3.666-8.392C1421.428,296.387,1423.726,303.215,1417.762,304.778z"/>
				<path fill="#705E2D" d="M1413.741,301.166c0,0-3.155-2.955-6.037-0.396C1407.704,300.771,1409.845,304.005,1413.741,301.166z"/>
				<path fill="#705E2D" d="M1411.318,298.046c0,0-2.648-2.481-5.066-0.333C1406.252,297.713,1408.048,300.43,1411.318,298.046z"/>
				<path fill="#705E2D" d="M1413.866,301.247c0,0-1.418-5.137,2.691-6.577C1416.558,294.67,1418.52,299.892,1413.866,301.247z"/>
				<path fill="#705E2D" d="M1411.387,297.804c0,0-1.07-3.881,2.034-4.967C1413.421,292.837,1414.902,296.779,1411.387,297.804z"/>
				<path fill="#705E2D" d="M1409.446,294.669c0,0-0.749-2.876,1.601-3.912C1411.047,290.757,1412.185,293.233,1409.446,294.669z"/>
				<path fill="#705E2D" d="M1409.352,294.438c0,0-1.514-1.754-3.773-0.526C1405.578,293.912,1406.928,296.252,1409.352,294.438z"/>
				<path fill="#705E2D" d="M1408.359,292.08c0,0-3.731-1.433-1.102-5.038C1407.258,287.042,1409.556,289.075,1408.359,292.08z"/>
			</g>
		</g>
		<g opacity="0.2">
			<g>
				<path fill="#705E2D" d="M699.904,344.076l-1.854-34.231c0,0-1.729-7.499,2.915-11.878c4.646-4.379,10.087-15.375,10.087-15.375"
					/>
				<path fill="#705E2D" d="M734.52,304.145c0,0-20.124,1.766-26.766,2.662c-6.642,0.894-7.213,1.451-7.213,1.451l-2.112,2.575
					l-0.324,0.021"/>
				<path fill="#705E2D" d="M698.528,321.037c0,0,0.153-8.494-8.981-8.161C689.547,312.876,688.864,322.095,698.528,321.037z"/>
				<path fill="#705E2D" d="M699.284,333.174c0,0,0.153-8.494-8.98-8.161C690.304,325.013,692.662,336.874,699.284,333.174z"/>
				<path fill="#705E2D" d="M699.163,325.618c0,0,8.465-0.726,7.189-9.776C706.353,315.842,697.114,316.114,699.163,325.618z"/>
				<path fill="#705E2D" d="M701.547,307.801c0,0-2.884,7.705,7.545,8.769C709.092,316.569,709.083,306.79,701.547,307.801z"/>
				<path fill="#705E2D" d="M705.619,292.162c0,0,2.348-3.404,6.666,0.327C712.285,292.489,707.62,296.136,705.619,292.162z"/>
				<path fill="#705E2D" d="M701,290c0,0,3.743,0.486,1.271,6.553C702.271,296.553,697.619,292.892,701,290z"/>
				<g>
					<path fill="#705E2D" d="M702.766,296.5c0,0,1.46-3.768,7.136,0.349C709.901,296.849,704.909,300.753,702.766,296.5z"/>
					<path fill="#705E2D" d="M702.102,296.717c0,0,1.702-0.476,4.295,0.13"/>
				</g>
				<path fill="#705E2D" d="M708.771,286.976c0,0,2.172-2.377-1.969-4.194C706.802,282.781,706.064,286.587,708.771,286.976z"/>
				<path fill="#705E2D" d="M705.771,291.792c0,0,2.536-2.775-2.297-4.896C703.474,286.896,701.741,291.356,705.771,291.792z"/>
				<path fill="#705E2D" d="M712.359,287.1c0,0-1.405,4.021-4.546,1.501C707.813,288.601,709.282,285.946,712.359,287.1z"/>
				<path fill="#705E2D" d="M735.063,307.715c0,0-4.192,0.749-3.538-3.224C731.525,304.491,734.559,304.468,735.063,307.715z"/>
				<path fill="#705E2D" d="M699.059,300.634c0,0-6.596-1.481-4.781-7.106C694.277,293.527,700.255,292.973,699.059,300.634z"/>
				<path fill="#705E2D" d="M706.745,301.114c0,0-4.17,5.32-8.47,1.267C698.275,302.381,700.341,296.744,706.745,301.114z"/>
				<path fill="#705E2D" d="M710.319,306.491c0,0-6.101-5.652,3.035-11.735C713.354,294.756,717.789,304.722,710.319,306.491z"/>
				<path fill="#705E2D" d="M710.319,306.491c0,0-3.508,2.641,3.857,7.25C714.177,313.741,715.753,303.423,710.319,306.491z"/>
				<path fill="#705E2D" d="M718.07,305.676c-0.086,0.032-5.907-4.159,2.222-11.005C720.292,294.671,724.829,303.122,718.07,305.676
					z"/>
				<path fill="#705E2D" d="M722.047,312.938"/>
				<path fill="#705E2D" d="M718.07,305.676c0,0-6.271,4.106,3.291,8.7C721.361,314.376,724.277,305.42,718.07,305.676z"/>
				<path fill="#705E2D" d="M725.583,304.956c0,0-5.956-3.85,1.713-10.055C727.296,294.901,731.702,304.113,725.583,304.956z"/>
				<path fill="#705E2D" d="M725.583,304.956c0,0-3.963,2.028,3.051,6.979C728.634,311.935,730.415,305.171,725.583,304.956z"/>
			</g>
			<g>
				<path fill="#705E2D" d="M596.135,319.481c0.499-0.209,14.662-17.142,18.503-33.979c0,0,0.133-2.242,2.694-4.4"/>
				<path fill="#705E2D" d="M602.224,311.598c0,0,2.891-6.27-6.908-9.497C595.315,302.101,593.313,311.933,602.224,311.598z"/>
				<path fill="#705E2D" d="M611.181,295.7c0,0,4.158,5.51,11.633-1.6C622.813,294.101,615.095,287.689,611.181,295.7z"/>
				<path fill="#705E2D" d="M607.171,303.623c0,0,3.384-6.776-6.557-9.307C600.614,294.316,598.518,304.049,607.171,303.623z"/>
				<path fill="#705E2D" d="M602.593,311.153c0,0,1.618,7.399,10.945,3.132C613.538,314.285,609.062,305.391,602.593,311.153z"/>
				<g>
					<path fill="#705E2D" d="M608.188,302.9c0,0,1.463-6.308,11.4-1.062C619.588,301.839,612.55,309.162,608.188,302.9z"/>
					<path fill="#705E2D" d="M607.183,303.396c0,0,2.592-1.142,6.842-0.768"/>
				</g>
				<g>
					<path fill="#705E2D" d="M610.725,294.781c0,0,3.467-5.471-7.247-8.862C603.478,285.919,603.204,296.071,610.725,294.781z"/>
					<path fill="#705E2D" d="M611.079,295.846c0,0-1.008-2.648-4.258-5.413"/>
				</g>
				<path fill="#705E2D" d="M613.87,287.829c0,0,0.073-6.814-7.662-5.337C606.208,282.492,607.294,289.694,613.87,287.829z"/>
				<path fill="#705E2D" d="M613.87,287.829c0,0,1.872-4.605,7.58-3.572C621.45,284.257,620.217,290.896,613.87,287.829z"/>
				<path fill="#705E2D" d="M614.793,284.851c0,0-2.384-5.928,4.728-8.979C619.521,275.871,621.975,282.022,614.793,284.851z"/>
			</g>
			<g>
				<path fill="#705E2D" d="M726.777,333.556c0.521-0.146,16.66-15.208,22.542-31.446c0,0,0.408-2.208,3.216-4.035"/>
				<path fill="#705E2D" d="M733.79,326.48c0,0,3.641-5.865-5.688-10.274C728.103,316.206,724.907,325.718,733.79,326.48z"/>
				<path fill="#705E2D" d="M744.634,311.806c0,0,3.45,5.979,11.743-0.157C756.377,311.648,749.505,304.337,744.634,311.806z"/>
				<path fill="#705E2D" d="M739.681,319.175c0,0,4.192-6.31-5.361-10.042C734.319,309.133,731.041,318.534,739.681,319.175z"/>
				<path fill="#705E2D" d="M734.212,326.085c0,0,0.695,7.543,10.478,4.454C744.689,330.539,741.341,321.162,734.212,326.085z"/>
				<g>
					<path fill="#705E2D" d="M740.779,318.583c0,0,2.228-6.081,11.444,0.35C752.224,318.933,744.337,325.333,740.779,318.583z"/>
					<path fill="#705E2D" d="M739.72,318.951c0,0,2.714-0.814,6.886,0.079"/>
				</g>
				<g>
					<path fill="#705E2D" d="M744.296,310.838c0,0,4.111-5.003-6.104-9.688C738.192,301.15,736.674,311.193,744.296,310.838z"/>
					<path fill="#705E2D" d="M744.517,311.938c0,0-0.675-2.752-3.561-5.895"/>
				</g>
				<path fill="#705E2D" d="M748.271,304.325c0,0,0.91-6.754-6.947-6.239C741.323,298.086,741.517,305.368,748.271,304.325z"/>
				<path fill="#705E2D" d="M748.271,304.325c0,0,2.426-4.341,7.963-2.614C756.233,301.711,754.194,308.147,748.271,304.325z"/>
				<path fill="#705E2D" d="M749.554,301.483c0,0-1.636-6.177,5.796-8.331C755.35,293.152,757.028,299.559,749.554,301.483z"/>
			</g>
			<g>
				<path fill="#705E2D" d="M698.353,318.399c-0.117-0.53-14.295-17.45-30.194-24.192c0,0-2.185-0.524-3.858-3.425"/>
				<path fill="#705E2D" d="M691.663,311.018c0,0-5.663-3.948-10.563,5.131C681.1,316.148,690.427,319.848,691.663,311.018z"/>
				<path fill="#705E2D" d="M677.589,299.404c0,0,6.155-3.125,0.471-11.733C678.06,287.671,670.392,294.143,677.589,299.404z"/>
				<path fill="#705E2D" d="M684.683,304.746c0,0-6.076-4.523-10.314,4.816C674.368,309.563,683.582,313.339,684.683,304.746z"/>
				<path fill="#705E2D" d="M691.291,310.576c0,0,7.569-0.292,5.008-10.224C696.299,300.353,686.755,303.193,691.291,310.576z"/>
				<g>
					<path fill="#705E2D" d="M684.15,303.616c0,0-5.953-2.549,0.96-11.409C685.11,292.207,691.082,300.425,684.15,303.616z"/>
					<path fill="#705E2D" d="M684.461,304.694c0,0-0.668-2.753,0.447-6.871"/>
				</g>
				<g>
					<path fill="#705E2D" d="M676.604,299.69c0,0-4.776-4.372-10,5.577C666.604,305.268,676.552,307.321,676.604,299.69z"/>
					<path fill="#705E2D" d="M677.715,299.53c0,0-2.785,0.526-6.078,3.24"/>
				</g>
				<path fill="#705E2D" d="M670.313,295.374c0,0-6.696-1.271-6.602,6.603C663.712,301.977,670.993,302.175,670.313,295.374z"/>
				<path fill="#705E2D" d="M670.313,295.374c0,0-4.204-2.654-2.185-8.092C668.129,287.282,674.448,289.663,670.313,295.374z"/>
				<path fill="#705E2D" d="M667.544,293.94c0,0-6.255,1.303-8.008-6.233C659.536,287.707,666.022,286.374,667.544,293.94z"/>
			</g>
			<g>
				<path fill="#705E2D" d="M624.198,334.962c0,0,4.418-11.861,2.528-21.834c-1.889-9.973,2.688-17.418,2.688-17.418"/>
				<path fill="#705E2D" d="M626.994,322.446c0,0-1.662-6.941-10.693-4.993C616.301,317.453,619.979,327.123,626.994,322.446z"/>
				<g>
					<path fill="#705E2D" d="M627.986,321.508c0,0-0.518-6.455,10.542-4.466C638.528,317.042,634.04,326.154,627.986,321.508z"/>
					<path fill="#705E2D" d="M627.177,322.285c0,0,2.126-1.875,6.289-2.806"/>
				</g>
				<path fill="#705E2D" d="M626.727,313.128c0,0-1.081-7.972-10.588-6.898C616.139,306.229,619.695,317.13,626.727,313.128z"/>
				<path fill="#705E2D" d="M626.727,313.128c0,0-0.417-5.902,8.983-6.658C635.71,306.47,631.601,317.592,626.727,313.128z"/>
				<path fill="#705E2D" d="M625.756,330.649c0,0,1.345-5.762,10.548-3.706C636.304,326.943,629.092,336.354,625.756,330.649z"/>
				<path fill="#705E2D" d="M626.604,304.057c0,0-1.11-5.414-6.444-4.36C620.16,299.696,621.772,306.269,626.604,304.057z"/>
				<path fill="#705E2D" d="M626.359,306.098c0,0,0.563-3.923,5.645-3.882C632.004,302.216,629.603,309.989,626.359,306.098z"/>
				<path fill="#705E2D" d="M627.887,299.073c0,0,0.696-3.32-2.899-3.957C624.987,295.116,624.443,298.858,627.887,299.073z"/>
				<path fill="#705E2D" d="M627.549,300.068c0,0,1.178-2.19,4.414-1.803C631.963,298.266,630.675,301.498,627.549,300.068z"/>
				<path fill="#705E2D" d="M628.688,297.017c0,0-1.354-2.761,1.965-4.202C630.653,292.814,631.918,295.921,628.688,297.017z"/>
			</g>
			<g>
				<path fill="#705E2D" d="M672.173,325.836c0,0-2.229-12.46-8.929-20.087c-6.698-7.626-6.543-16.363-6.543-16.363"/>
				<path fill="#705E2D" d="M668.214,313.638c0,0-4.962-5.133-11.746,1.14C656.468,314.777,664.551,321.233,668.214,313.638z"/>
				<g>
					<path fill="#705E2D" d="M668.59,312.324c0,0-3.729-5.293,6.808-9.206C675.397,303.118,676.166,313.246,668.59,312.324z"/>
					<path fill="#705E2D" d="M668.289,313.404c0,0,0.878-2.693,3.989-5.613"/>
				</g>
				<path fill="#705E2D" d="M663.244,305.749c0,0-4.985-6.313-12.626-0.554C650.618,305.195,659.225,312.771,663.244,305.749z"/>
				<path fill="#705E2D" d="M663.244,305.749c0,0-3.361-4.868,4.348-10.3C667.592,295.449,669.712,307.115,663.244,305.749z"/>
				<path fill="#705E2D" d="M671.318,321.33c0,0-1.771-5.646,7.198-8.555C678.517,312.775,677.093,324.546,671.318,321.33z"/>
				<path fill="#705E2D" d="M658.524,298.002c0,0-3.709-4.097-7.766-0.477C650.759,297.525,655.49,302.364,658.524,298.002z"/>
				<path fill="#705E2D" d="M659.352,299.884c0,0-1.509-3.664,2.886-6.214C662.237,293.67,664.124,301.585,659.352,299.884z"/>
				<path fill="#705E2D" d="M657.096,293.06c0,0-1.09-3.215-4.51-1.932C652.586,291.128,654.021,294.626,657.096,293.06z"/>
				<path fill="#705E2D" d="M657.31,294.087c0,0-0.1-2.484,2.885-3.796C660.194,290.291,660.728,293.729,657.31,294.087z"/>
				<path fill="#705E2D" d="M656.738,290.88c0,0-2.569-1.688-0.444-4.617C656.294,286.263,658.963,288.294,656.738,290.88z"/>
			</g>
			<g>
				<path fill="#705E2D" d="M621.975,335.126c0,0-21.254-5.125-25.415-23.636"/>
				<path fill="#705E2D" d="M612.373,331.156c0,0-4.021-5.828,2.926-10.343C615.299,320.813,620.227,329.323,612.373,331.156z"/>
				<path fill="#705E2D" d="M612.373,331.156c0,0-5.024-3-7.259,2.699C605.114,333.855,611.32,336.042,612.373,331.156z"/>
				<path fill="#705E2D" d="M606.221,326.926c0,0-5.436-3.104-8.374,2.097C597.847,329.022,604.312,331.589,606.221,326.926z"/>
				<path fill="#705E2D" d="M606.937,327.517c0,0-2.762-5.796,3.666-8.393C610.603,319.124,612.9,325.953,606.937,327.517z"/>
				<path fill="#705E2D" d="M602.916,323.902c0,0-3.154-2.953-6.036-0.394C596.88,323.509,599.02,326.742,602.916,323.902z"/>
				<path fill="#705E2D" d="M600.493,320.782c0,0-2.647-2.479-5.066-0.331C595.427,320.451,597.223,323.166,600.493,320.782z"/>
				<path fill="#705E2D" d="M603.04,323.985c0,0-1.417-5.139,2.693-6.577C605.733,317.408,607.695,322.628,603.04,323.985z"/>
				<path fill="#705E2D" d="M600.562,320.541c0,0-1.071-3.88,2.033-4.967C602.595,315.574,604.077,319.518,600.562,320.541z"/>
				<path fill="#705E2D" d="M598.622,317.406c0,0-0.75-2.875,1.6-3.912C600.222,313.494,601.36,315.972,598.622,317.406z"/>
				<path fill="#705E2D" d="M598.525,317.176c0,0-1.512-1.753-3.771-0.525C594.754,316.65,596.104,318.99,598.525,317.176z"/>
				<path fill="#705E2D" d="M597.534,314.817c0,0-3.732-1.433-1.101-5.037C596.434,309.78,598.731,311.813,597.534,314.817z"/>
			</g>
			<g>
				<path fill="#705E2D" d="M663.701,322.443c0,0-21.254-5.127-25.416-23.637"/>
				<path fill="#705E2D" d="M654.1,318.473c0,0-4.021-5.826,2.926-10.342C657.025,308.131,661.953,316.641,654.1,318.473z"/>
				<path fill="#705E2D" d="M654.1,318.473c0,0-5.024-2.998-7.26,2.699C646.84,321.172,653.046,323.359,654.1,318.473z"/>
				<path fill="#705E2D" d="M647.945,314.243c0,0-5.435-3.105-8.372,2.097C639.573,316.34,646.038,318.905,647.945,314.243z"/>
				<path fill="#705E2D" d="M648.663,314.833c0,0-2.763-5.797,3.666-8.392C652.329,306.441,654.627,313.27,648.663,314.833z"/>
				<path fill="#705E2D" d="M644.643,311.221c0,0-3.155-2.955-6.037-0.396C638.605,310.825,640.746,314.06,644.643,311.221z"/>
				<path fill="#705E2D" d="M642.22,308.101c0,0-2.648-2.481-5.066-0.333C637.153,307.768,638.949,310.484,642.22,308.101z"/>
				<path fill="#705E2D" d="M644.768,311.302c0,0-1.418-5.137,2.691-6.577C647.459,304.725,649.421,309.946,644.768,311.302z"/>
				<path fill="#705E2D" d="M642.288,307.858c0,0-1.07-3.881,2.034-4.967C644.322,302.892,645.804,306.834,642.288,307.858z"/>
				<path fill="#705E2D" d="M640.348,304.724c0,0-0.749-2.876,1.601-3.912C641.948,300.812,643.086,303.288,640.348,304.724z"/>
				<path fill="#705E2D" d="M640.253,304.493c0,0-1.514-1.754-3.773-0.526C636.479,303.967,637.829,306.307,640.253,304.493z"/>
				<path fill="#705E2D" d="M639.261,302.135c0,0-3.731-1.433-1.102-5.038C638.159,297.097,640.457,299.13,639.261,302.135z"/>
			</g>
		</g>
		<g opacity="0.2">
			<g>
				<path fill="#705E2D" d="M862.571,350.076l-1.854-34.231c0,0-1.729-7.499,2.915-11.878c4.646-4.379,10.087-15.375,10.087-15.375"
					/>
				<path fill="#705E2D" d="M897.187,310.145c0,0-20.124,1.766-26.766,2.662c-6.642,0.894-7.213,1.451-7.213,1.451l-2.112,2.575
					l-0.324,0.021"/>
				<path fill="#705E2D" d="M861.195,327.037c0,0,0.153-8.494-8.981-8.161C852.214,318.876,851.531,328.095,861.195,327.037z"/>
				<path fill="#705E2D" d="M861.951,339.174c0,0,0.153-8.494-8.98-8.161C852.971,331.013,855.329,342.874,861.951,339.174z"/>
				<path fill="#705E2D" d="M861.83,331.618c0,0,8.465-0.726,7.189-9.776C869.02,321.842,859.781,322.114,861.83,331.618z"/>
				<path fill="#705E2D" d="M864.214,313.801c0,0-2.884,7.705,7.545,8.769C871.759,322.569,871.75,312.79,864.214,313.801z"/>
				<path fill="#705E2D" d="M868.286,298.162c0,0,2.348-3.404,6.666,0.327C874.952,298.489,870.287,302.136,868.286,298.162z"/>
				<path fill="#705E2D" d="M863.667,296c0,0,3.743,0.486,1.271,6.553C864.938,302.553,860.286,298.892,863.667,296z"/>
				<g>
					<path fill="#705E2D" d="M865.433,302.5c0,0,1.46-3.768,7.136,0.349C872.568,302.849,867.576,306.753,865.433,302.5z"/>
					<path fill="#705E2D" d="M864.769,302.717c0,0,1.702-0.476,4.295,0.13"/>
				</g>
				<path fill="#705E2D" d="M871.438,292.976c0,0,2.172-2.377-1.969-4.194C869.469,288.781,868.731,292.587,871.438,292.976z"/>
				<path fill="#705E2D" d="M868.438,297.792c0,0,2.536-2.775-2.297-4.896C866.141,292.896,864.408,297.356,868.438,297.792z"/>
				<path fill="#705E2D" d="M875.026,293.1c0,0-1.405,4.021-4.546,1.501C870.48,294.601,871.949,291.946,875.026,293.1z"/>
				<path fill="#705E2D" d="M897.73,313.715c0,0-4.192,0.749-3.538-3.224C894.192,310.491,897.226,310.468,897.73,313.715z"/>
				<path fill="#705E2D" d="M861.726,306.634c0,0-6.596-1.481-4.781-7.106C856.944,299.527,862.922,298.973,861.726,306.634z"/>
				<path fill="#705E2D" d="M869.412,307.114c0,0-4.17,5.32-8.47,1.267C860.942,308.381,863.008,302.744,869.412,307.114z"/>
				<path fill="#705E2D" d="M872.986,312.491c0,0-6.101-5.652,3.035-11.735C876.021,300.756,880.456,310.722,872.986,312.491z"/>
				<path fill="#705E2D" d="M872.986,312.491c0,0-3.508,2.641,3.857,7.25C876.844,319.741,878.42,309.423,872.986,312.491z"/>
				<path fill="#705E2D" d="M880.737,311.676c-0.086,0.032-5.907-4.159,2.222-11.005
					C882.959,300.671,887.496,309.122,880.737,311.676z"/>
				<path fill="#705E2D" d="M884.714,318.938"/>
				<path fill="#705E2D" d="M880.737,311.676c0,0-6.271,4.106,3.291,8.7C884.028,320.376,886.944,311.42,880.737,311.676z"/>
				<path fill="#705E2D" d="M888.25,310.956c0,0-5.956-3.85,1.713-10.055C889.963,300.901,894.369,310.113,888.25,310.956z"/>
				<path fill="#705E2D" d="M888.25,310.956c0,0-3.963,2.028,3.051,6.979C891.301,317.935,893.082,311.171,888.25,310.956z"/>
			</g>
			<g>
				<path fill="#705E2D" d="M758.802,325.481c0.499-0.209,14.662-17.142,18.503-33.979c0,0,0.133-2.242,2.694-4.4"/>
				<path fill="#705E2D" d="M764.891,317.598c0,0,2.891-6.27-6.908-9.497C757.982,308.101,755.98,317.933,764.891,317.598z"/>
				<path fill="#705E2D" d="M773.848,301.7c0,0,4.158,5.51,11.633-1.6C785.48,300.101,777.762,293.689,773.848,301.7z"/>
				<path fill="#705E2D" d="M769.838,309.623c0,0,3.384-6.776-6.557-9.307C763.281,300.316,761.185,310.049,769.838,309.623z"/>
				<path fill="#705E2D" d="M765.26,317.153c0,0,1.618,7.399,10.945,3.132C776.205,320.285,771.729,311.391,765.26,317.153z"/>
				<g>
					<path fill="#705E2D" d="M770.854,308.9c0,0,1.463-6.308,11.4-1.062C782.255,307.839,775.217,315.162,770.854,308.9z"/>
					<path fill="#705E2D" d="M769.85,309.396c0,0,2.592-1.142,6.842-0.768"/>
				</g>
				<g>
					<path fill="#705E2D" d="M773.392,300.781c0,0,3.467-5.471-7.247-8.862C766.145,291.919,765.871,302.071,773.392,300.781z"/>
					<path fill="#705E2D" d="M773.746,301.846c0,0-1.008-2.648-4.258-5.413"/>
				</g>
				<path fill="#705E2D" d="M776.537,293.829c0,0,0.073-6.814-7.662-5.337C768.875,288.492,769.961,295.694,776.537,293.829z"/>
				<path fill="#705E2D" d="M776.537,293.829c0,0,1.872-4.605,7.58-3.572C784.117,290.257,782.884,296.896,776.537,293.829z"/>
				<path fill="#705E2D" d="M777.46,290.851c0,0-2.384-5.928,4.728-8.979C782.188,281.871,784.642,288.022,777.46,290.851z"/>
			</g>
			<g>
				<path fill="#705E2D" d="M889.444,339.556c0.521-0.146,16.66-15.208,22.542-31.446c0,0,0.408-2.208,3.216-4.035"/>
				<path fill="#705E2D" d="M896.457,332.48c0,0,3.641-5.865-5.688-10.274C890.77,322.206,887.574,331.718,896.457,332.48z"/>
				<path fill="#705E2D" d="M907.301,317.806c0,0,3.45,5.979,11.743-0.157C919.044,317.648,912.172,310.337,907.301,317.806z"/>
				<path fill="#705E2D" d="M902.348,325.175c0,0,4.192-6.31-5.361-10.042C896.986,315.133,893.708,324.534,902.348,325.175z"/>
				<path fill="#705E2D" d="M896.879,332.085c0,0,0.695,7.543,10.478,4.454C907.356,336.539,904.008,327.162,896.879,332.085z"/>
				<g>
					<path fill="#705E2D" d="M903.446,324.583c0,0,2.228-6.081,11.444,0.35C914.891,324.933,907.004,331.333,903.446,324.583z"/>
					<path fill="#705E2D" d="M902.387,324.951c0,0,2.714-0.814,6.886,0.079"/>
				</g>
				<g>
					<path fill="#705E2D" d="M906.963,316.838c0,0,4.111-5.003-6.104-9.688C900.859,307.15,899.341,317.193,906.963,316.838z"/>
					<path fill="#705E2D" d="M907.184,317.938c0,0-0.675-2.752-3.561-5.895"/>
				</g>
				<path fill="#705E2D" d="M910.938,310.325c0,0,0.91-6.754-6.947-6.239C903.99,304.086,904.184,311.368,910.938,310.325z"/>
				<path fill="#705E2D" d="M910.938,310.325c0,0,2.426-4.341,7.963-2.614C918.9,307.711,916.861,314.147,910.938,310.325z"/>
				<path fill="#705E2D" d="M912.221,307.483c0,0-1.636-6.177,5.796-8.331C918.017,299.152,919.695,305.559,912.221,307.483z"/>
			</g>
			<g>
				<path fill="#705E2D" d="M861.02,324.399c-0.117-0.53-14.295-17.45-30.194-24.192c0,0-2.185-0.524-3.858-3.425"/>
				<path fill="#705E2D" d="M854.33,317.018c0,0-5.663-3.948-10.563,5.131C843.767,322.148,853.094,325.848,854.33,317.018z"/>
				<path fill="#705E2D" d="M840.256,305.404c0,0,6.155-3.125,0.471-11.733C840.727,293.671,833.059,300.143,840.256,305.404z"/>
				<path fill="#705E2D" d="M847.35,310.746c0,0-6.076-4.523-10.314,4.816C837.035,315.563,846.249,319.339,847.35,310.746z"/>
				<path fill="#705E2D" d="M853.958,316.576c0,0,7.569-0.292,5.008-10.224C858.966,306.353,849.422,309.193,853.958,316.576z"/>
				<g>
					<path fill="#705E2D" d="M846.817,309.616c0,0-5.953-2.549,0.96-11.409C847.777,298.207,853.749,306.425,846.817,309.616z"/>
					<path fill="#705E2D" d="M847.128,310.694c0,0-0.668-2.753,0.447-6.871"/>
				</g>
				<g>
					<path fill="#705E2D" d="M839.271,305.69c0,0-4.776-4.372-10,5.577C829.271,311.268,839.219,313.321,839.271,305.69z"/>
					<path fill="#705E2D" d="M840.382,305.53c0,0-2.785,0.526-6.078,3.24"/>
				</g>
				<path fill="#705E2D" d="M832.98,301.374c0,0-6.696-1.271-6.602,6.603C826.379,307.977,833.66,308.175,832.98,301.374z"/>
				<path fill="#705E2D" d="M832.98,301.374c0,0-4.204-2.654-2.185-8.092C830.796,293.282,837.115,295.663,832.98,301.374z"/>
				<path fill="#705E2D" d="M830.211,299.94c0,0-6.255,1.303-8.008-6.233C822.203,293.707,828.689,292.374,830.211,299.94z"/>
			</g>
			<g>
				<path fill="#705E2D" d="M786.865,340.962c0,0,4.418-11.861,2.528-21.834c-1.889-9.973,2.688-17.418,2.688-17.418"/>
				<path fill="#705E2D" d="M789.661,328.446c0,0-1.662-6.941-10.693-4.993C778.968,323.453,782.646,333.123,789.661,328.446z"/>
				<g>
					<path fill="#705E2D" d="M790.653,327.508c0,0-0.518-6.455,10.542-4.466C801.195,323.042,796.707,332.154,790.653,327.508z"/>
					<path fill="#705E2D" d="M789.844,328.285c0,0,2.126-1.875,6.289-2.806"/>
				</g>
				<path fill="#705E2D" d="M789.394,319.128c0,0-1.081-7.972-10.588-6.898C778.806,312.229,782.362,323.13,789.394,319.128z"/>
				<path fill="#705E2D" d="M789.394,319.128c0,0-0.417-5.902,8.983-6.658C798.377,312.47,794.268,323.592,789.394,319.128z"/>
				<path fill="#705E2D" d="M788.423,336.649c0,0,1.345-5.762,10.548-3.706C798.971,332.943,791.759,342.354,788.423,336.649z"/>
				<path fill="#705E2D" d="M789.271,310.057c0,0-1.11-5.414-6.444-4.36C782.827,305.696,784.439,312.269,789.271,310.057z"/>
				<path fill="#705E2D" d="M789.026,312.098c0,0,0.563-3.923,5.645-3.882C794.671,308.216,792.27,315.989,789.026,312.098z"/>
				<path fill="#705E2D" d="M790.554,305.073c0,0,0.696-3.32-2.899-3.957C787.654,301.116,787.11,304.858,790.554,305.073z"/>
				<path fill="#705E2D" d="M790.216,306.068c0,0,1.178-2.19,4.414-1.803C794.63,304.266,793.342,307.498,790.216,306.068z"/>
				<path fill="#705E2D" d="M791.355,303.017c0,0-1.354-2.761,1.965-4.202C793.32,298.814,794.585,301.921,791.355,303.017z"/>
			</g>
			<g>
				<path fill="#705E2D" d="M834.84,331.836c0,0-2.229-12.46-8.929-20.087c-6.698-7.626-6.543-16.363-6.543-16.363"/>
				<path fill="#705E2D" d="M830.881,319.638c0,0-4.962-5.133-11.746,1.14C819.135,320.777,827.218,327.233,830.881,319.638z"/>
				<g>
					<path fill="#705E2D" d="M831.257,318.324c0,0-3.729-5.293,6.808-9.206C838.064,309.118,838.833,319.246,831.257,318.324z"/>
					<path fill="#705E2D" d="M830.956,319.404c0,0,0.878-2.693,3.989-5.613"/>
				</g>
				<path fill="#705E2D" d="M825.911,311.749c0,0-4.985-6.313-12.626-0.554C813.285,311.195,821.892,318.771,825.911,311.749z"/>
				<path fill="#705E2D" d="M825.911,311.749c0,0-3.361-4.868,4.348-10.3C830.259,301.449,832.379,313.115,825.911,311.749z"/>
				<path fill="#705E2D" d="M833.985,327.33c0,0-1.771-5.646,7.198-8.555C841.184,318.775,839.76,330.546,833.985,327.33z"/>
				<path fill="#705E2D" d="M821.191,304.002c0,0-3.709-4.097-7.766-0.477C813.426,303.525,818.157,308.364,821.191,304.002z"/>
				<path fill="#705E2D" d="M822.019,305.884c0,0-1.509-3.664,2.886-6.214C824.904,299.67,826.791,307.585,822.019,305.884z"/>
				<path fill="#705E2D" d="M819.763,299.06c0,0-1.09-3.215-4.51-1.932C815.253,297.128,816.688,300.626,819.763,299.06z"/>
				<path fill="#705E2D" d="M819.977,300.087c0,0-0.1-2.484,2.885-3.796C822.861,296.291,823.395,299.729,819.977,300.087z"/>
				<path fill="#705E2D" d="M819.405,296.88c0,0-2.569-1.688-0.444-4.617C818.961,292.263,821.63,294.294,819.405,296.88z"/>
			</g>
			<g>
				<path fill="#705E2D" d="M784.642,341.126c0,0-21.254-5.125-25.415-23.636"/>
				<path fill="#705E2D" d="M775.04,337.156c0,0-4.021-5.828,2.926-10.343C777.966,326.813,782.894,335.323,775.04,337.156z"/>
				<path fill="#705E2D" d="M775.04,337.156c0,0-5.024-3-7.259,2.699C767.781,339.855,773.987,342.042,775.04,337.156z"/>
				<path fill="#705E2D" d="M768.888,332.926c0,0-5.436-3.104-8.374,2.097C760.514,335.022,766.979,337.589,768.888,332.926z"/>
				<path fill="#705E2D" d="M769.604,333.517c0,0-2.762-5.796,3.666-8.393C773.27,325.124,775.567,331.953,769.604,333.517z"/>
				<path fill="#705E2D" d="M765.583,329.902c0,0-3.154-2.953-6.036-0.394C759.547,329.509,761.687,332.742,765.583,329.902z"/>
				<path fill="#705E2D" d="M763.16,326.782c0,0-2.647-2.479-5.066-0.331C758.094,326.451,759.89,329.166,763.16,326.782z"/>
				<path fill="#705E2D" d="M765.707,329.985c0,0-1.417-5.139,2.693-6.577C768.4,323.408,770.362,328.628,765.707,329.985z"/>
				<path fill="#705E2D" d="M763.229,326.541c0,0-1.071-3.88,2.033-4.967C765.262,321.574,766.744,325.518,763.229,326.541z"/>
				<path fill="#705E2D" d="M761.289,323.406c0,0-0.75-2.875,1.6-3.912C762.889,319.494,764.027,321.972,761.289,323.406z"/>
				<path fill="#705E2D" d="M761.192,323.176c0,0-1.512-1.753-3.771-0.525C757.421,322.65,758.771,324.99,761.192,323.176z"/>
				<path fill="#705E2D" d="M760.201,320.817c0,0-3.732-1.433-1.101-5.037C759.101,315.78,761.398,317.813,760.201,320.817z"/>
			</g>
			<g>
				<path fill="#705E2D" d="M826.368,328.443c0,0-21.254-5.127-25.416-23.637"/>
				<path fill="#705E2D" d="M816.767,324.473c0,0-4.021-5.826,2.926-10.342C819.692,314.131,824.62,322.641,816.767,324.473z"/>
				<path fill="#705E2D" d="M816.767,324.473c0,0-5.024-2.998-7.26,2.699C809.507,327.172,815.713,329.359,816.767,324.473z"/>
				<path fill="#705E2D" d="M810.612,320.243c0,0-5.435-3.105-8.372,2.097C802.24,322.34,808.705,324.905,810.612,320.243z"/>
				<path fill="#705E2D" d="M811.33,320.833c0,0-2.763-5.797,3.666-8.392C814.996,312.441,817.294,319.27,811.33,320.833z"/>
				<path fill="#705E2D" d="M807.31,317.221c0,0-3.155-2.955-6.037-0.396C801.272,316.825,803.413,320.06,807.31,317.221z"/>
				<path fill="#705E2D" d="M804.887,314.101c0,0-2.648-2.481-5.066-0.333C799.82,313.768,801.616,316.484,804.887,314.101z"/>
				<path fill="#705E2D" d="M807.435,317.302c0,0-1.418-5.137,2.691-6.577C810.126,310.725,812.088,315.946,807.435,317.302z"/>
				<path fill="#705E2D" d="M804.955,313.858c0,0-1.07-3.881,2.034-4.967C806.989,308.892,808.471,312.834,804.955,313.858z"/>
				<path fill="#705E2D" d="M803.015,310.724c0,0-0.749-2.876,1.601-3.912C804.615,306.812,805.753,309.288,803.015,310.724z"/>
				<path fill="#705E2D" d="M802.92,310.493c0,0-1.514-1.754-3.773-0.526C799.146,309.967,800.496,312.307,802.92,310.493z"/>
				<path fill="#705E2D" d="M801.928,308.135c0,0-3.731-1.433-1.102-5.038C800.826,303.097,803.124,305.13,801.928,308.135z"/>
			</g>
		</g>
		<g opacity="0.5">
			<g>
				<path fill="#705E2D" d="M1661.328,340.46l-4.022-40.85c0,0-2.463-8.88,2.862-14.362s11.255-18.924,11.255-18.924"/>
				<path fill="#705E2D" d="M1700.631,290.87c0,0-23.979,3.173-31.876,4.594c-7.897,1.42-8.553,2.116-8.553,2.116l-2.392,3.193
					l-0.385,0.04"/>
				<path fill="#705E2D" d="M1658.469,312.974c0,0-0.264-10.169-11.174-9.289C1647.295,303.685,1646.964,314.747,1658.469,312.974z"
					/>
				<path fill="#705E2D" d="M1660.012,327.451c0,0-0.264-10.169-11.172-9.289C1648.84,318.162,1652.286,332.226,1660.012,327.451z"
					/>
				<path fill="#705E2D" d="M1659.47,318.419c0,0,10.087-1.313,8.084-12.073C1667.554,306.346,1656.518,307.16,1659.47,318.419z"/>
				<path fill="#705E2D" d="M1661.382,296.98c0,0-3.042,9.369,9.487,10.093C1670.869,307.073,1670.342,295.374,1661.382,296.98z"/>
				<path fill="#705E2D" d="M1665.429,278.06c0,0,2.628-4.196,7.991,0.039C1673.42,278.099,1668.032,282.706,1665.429,278.06z"/>
				<path fill="#705E2D" d="M1659.789,275.717c0,0,4.503,0.384,1.866,7.771C1661.655,283.487,1655.897,279.353,1659.789,275.717z"/>
				<g>
					<path fill="#705E2D" d="M1662.245,283.398c0,0,1.547-4.584,8.554,0.042C1670.799,283.44,1665.033,288.373,1662.245,283.398z"/>
					<path fill="#705E2D" d="M1661.461,283.693c0,0,2.012-0.659,5.145-0.071"/>
				</g>
				<path fill="#705E2D" d="M1668.925,271.689c0,0,2.474-2.959-2.577-4.914C1666.348,266.775,1665.667,271.367,1668.925,271.689z"/>
				<path fill="#705E2D" d="M1665.591,277.608c0,0,2.887-3.452-3.007-5.734C1662.584,271.874,1660.747,277.301,1665.591,277.608z"/>
				<path fill="#705E2D" d="M1673.224,271.648c0,0-1.468,4.883-5.358,2.035C1667.865,273.684,1669.482,270.431,1673.224,271.648z"/>
				<path fill="#705E2D" d="M1701.47,295.111c0,0-4.976,1.117-4.402-3.67C1697.067,291.441,1700.694,291.254,1701.47,295.111z"/>
				<path fill="#705E2D" d="M1658.027,288.539c0,0-7.968-1.425-6.094-8.249C1651.934,280.29,1659.055,279.313,1658.027,288.539z"/>
				<path fill="#705E2D" d="M1667.247,288.709c0,0-4.707,6.583-10.064,1.96C1657.183,290.669,1659.355,283.818,1667.247,288.709z"/>
				<path fill="#705E2D" d="M1671.806,294.951c0,0-7.596-6.439,3.013-14.197C1674.818,280.754,1680.648,292.441,1671.806,294.951z"
					/>
				<path fill="#705E2D" d="M1671.806,294.951c0,0-4.057,3.345,4.997,8.471C1676.803,303.422,1678.145,290.994,1671.806,294.951z"/>
				<path fill="#705E2D" d="M1681.034,293.568c-0.101,0.043-7.284-4.665,2.078-13.282
					C1683.112,280.286,1688.984,290.157,1681.034,293.568z"/>
				<path fill="#705E2D" d="M1686.174,302.044"/>
				<path fill="#705E2D" d="M1681.034,293.568c0,0-7.285,5.241,4.396,10.233C1685.431,303.802,1688.445,292.935,1681.034,293.568z"
					/>
				<path fill="#705E2D" d="M1689.983,292.312c0,0-7.327-4.292,1.519-12.117C1691.502,280.194,1697.259,290.98,1689.983,292.312z"/>
				<path fill="#705E2D" d="M1689.983,292.312c0,0-4.634,2.635,4.018,8.186C1694.001,300.497,1695.774,292.313,1689.983,292.312z"/>
			</g>
			<g>
				<path fill="#705E2D" d="M1535.902,316.509c0.587-0.276,16.638-21.277,20.344-41.62c0,0,0.041-2.69,2.991-5.406"/>
				<path fill="#705E2D" d="M1542.771,306.758c0,0,3.127-7.651-8.764-10.996C1534.008,295.762,1532.131,307.629,1542.771,306.758z"
					/>
				<path fill="#705E2D" d="M1552.647,287.27c0,0,5.266,6.371,13.832-2.528C1566.479,284.741,1556.907,277.48,1552.647,287.27z"/>
				<path fill="#705E2D" d="M1548.268,296.958c0,0,3.691-8.285-8.332-10.787C1539.936,286.171,1537.939,297.924,1548.268,296.958z"
					/>
				<path fill="#705E2D" d="M1543.189,306.207c0,0,2.326,8.767,13.258,3.169C1556.447,309.376,1550.625,298.973,1543.189,306.207z"
					/>
				<g>
					<path fill="#705E2D" d="M1549.447,296.04c0,0,1.417-7.623,13.581-1.87C1563.028,294.17,1554.995,303.3,1549.447,296.04z"/>
					<path fill="#705E2D" d="M1548.271,296.686c0,0,3.041-1.503,8.145-1.279"/>
				</g>
				<g>
					<path fill="#705E2D" d="M1552.055,286.194c0,0,3.856-6.728-9.138-10.22C1542.917,275.975,1543.126,288.134,1552.055,286.194z"
						/>
					<path fill="#705E2D" d="M1552.534,287.447c0,0-1.345-3.113-5.379-6.249"/>
				</g>
				<path fill="#705E2D" d="M1555.45,277.712c0,0-0.272-8.154-9.447-5.979C1546.003,271.732,1547.683,280.29,1555.45,277.712z"/>
				<path fill="#705E2D" d="M1555.45,277.712c0,0,1.997-5.607,8.879-4.673C1564.329,273.039,1563.204,281.045,1555.45,277.712z"/>
				<path fill="#705E2D" d="M1556.396,274.101c0,0-3.163-6.965,5.182-10.99C1561.578,263.11,1564.839,270.34,1556.396,274.101z"/>
			</g>
			<g>
				<path fill="#705E2D" d="M1692.92,326.459c0.616-0.203,19.127-19.07,25.308-38.804c0,0,0.37-2.664,3.634-4.997"/>
				<path fill="#705E2D" d="M1700.936,317.626c0,0,4.046-7.208-7.345-11.99C1693.591,305.636,1690.27,317.182,1700.936,317.626z"/>
				<path fill="#705E2D" d="M1713.134,299.5c0,0,4.441,6.971,14.038-0.807C1727.172,298.693,1718.566,290.309,1713.134,299.5z"/>
				<path fill="#705E2D" d="M1707.596,308.576c0,0,4.683-7.768-6.942-11.729C1700.653,296.847,1697.228,308.266,1707.596,308.576z"
					/>
				<path fill="#705E2D" d="M1701.42,317.131c0,0,1.229,8.986,12.767,4.775C1714.187,321.906,1709.688,310.865,1701.42,317.131z"/>
				<g>
					<path fill="#705E2D" d="M1708.88,307.811c0,0,2.344-7.391,13.708-0.186C1722.588,307.625,1713.492,315.697,1708.88,307.811z"/>
					<path fill="#705E2D" d="M1707.632,308.307c0,0,3.203-1.117,8.24-0.268"/>
				</g>
				<g>
					<path fill="#705E2D" d="M1712.678,298.36c0,0,4.655-6.201-7.812-11.266C1704.866,287.095,1703.578,299.188,1712.678,298.36z"/>
					<path fill="#705E2D" d="M1713,299.663c0,0-0.952-3.256-4.569-6.862"/>
				</g>
				<path fill="#705E2D" d="M1717.09,290.36c0,0,0.732-8.126-8.639-7.098C1708.451,283.263,1709.064,291.964,1717.09,290.36z"/>
				<path fill="#705E2D" d="M1717.09,290.36c0,0,2.672-5.319,9.387-3.547C1726.477,286.813,1724.375,294.621,1717.09,290.36z"/>
				<path fill="#705E2D" d="M1718.475,286.894c0,0-2.282-7.304,6.494-10.271C1724.969,276.622,1727.314,284.198,1718.475,286.894z"
					/>
			</g>
			<g>
				<path fill="#705E2D" d="M1658.119,309.827c-0.168-0.628-18.02-20.12-37.394-27.348c0,0-2.641-0.512-4.796-3.893"/>
				<path fill="#705E2D" d="M1649.729,301.35c0,0-6.982-4.424-12.365,6.693C1637.363,308.043,1648.715,311.978,1649.729,301.35z"/>
				<path fill="#705E2D" d="M1632.28,288.199c0,0,7.199-4.063-0.056-14.06C1632.225,274.14,1623.393,282.285,1632.28,288.199z"/>
				<path fill="#705E2D" d="M1641.048,294.215c0,0-7.507-5.091-12.085,6.307C1628.963,300.521,1640.183,304.553,1641.048,294.215z"
					/>
				<path fill="#705E2D" d="M1649.259,300.842c0,0,9.04-0.749,5.452-12.494C1654.711,288.348,1643.445,292.249,1649.259,300.842z"/>
				<g>
					<path fill="#705E2D" d="M1640.352,292.894c0,0-7.256-2.736,0.547-13.7C1640.898,279.193,1648.474,288.709,1640.352,292.894z"/>
					<path fill="#705E2D" d="M1640.779,294.165c0,0-0.943-3.258,0.174-8.243"/>
				</g>
				<g>
					<path fill="#705E2D" d="M1631.117,288.594c0,0-5.944-4.979-11.667,7.199C1619.45,295.793,1631.457,297.726,1631.117,288.594z"
						/>
					<path fill="#705E2D" d="M1632.437,288.343c0,0-3.303,0.777-7.098,4.197"/>
				</g>
				<path fill="#705E2D" d="M1623.364,283.762c0,0-8.075-1.166-7.548,8.247C1615.816,292.009,1624.537,291.861,1623.364,283.762z"/>
				<path fill="#705E2D" d="M1623.364,283.762c0,0-5.168-2.953-3.039-9.563C1620.325,274.198,1628.01,276.713,1623.364,283.762z"/>
				<path fill="#705E2D" d="M1619.977,282.193c0,0-7.413,1.889-9.908-7.034C1610.068,275.159,1617.758,273.223,1619.977,282.193z"/>
			</g>
			<g>
				<path fill="#705E2D" d="M1570.289,333.548c0,0,4.66-14.421,1.874-26.251s2.298-20.977,2.298-20.977"/>
				<path fill="#705E2D" d="M1572.974,318.43c0,0-2.354-8.216-13.055-5.409C1559.919,313.021,1564.828,324.395,1572.974,318.43z"/>
				<g>
					<path fill="#705E2D" d="M1574.111,317.255c0,0-0.96-7.693,12.375-5.898C1586.486,311.356,1581.598,322.493,1574.111,317.255z"
						/>
					<path fill="#705E2D" d="M1573.185,318.228c0,0,2.443-2.354,7.375-3.688"/>
				</g>
				<path fill="#705E2D" d="M1572.163,307.297c0,0-1.713-9.479-13.03-7.694C1559.133,299.603,1563.963,312.454,1572.163,307.297z"/>
				<path fill="#705E2D" d="M1572.163,307.297c0,0-0.811-7.038,10.394-8.438C1582.557,298.859,1578.229,312.381,1572.163,307.297z"
					/>
				<path fill="#705E2D" d="M1571.924,328.308c0,0,1.307-6.964,12.423-4.989C1584.347,323.318,1576.216,334.956,1571.924,328.308z"
					/>
				<path fill="#705E2D" d="M1571.538,296.452c0,0-1.614-6.417-7.938-4.876C1563.6,291.576,1565.876,299.354,1571.538,296.452z"/>
				<path fill="#705E2D" d="M1571.353,298.906c0,0,0.468-4.722,6.548-4.941C1577.9,293.965,1575.438,303.391,1571.353,298.906z"/>
				<path fill="#705E2D" d="M1572.81,290.424c0,0,0.658-4.009-3.678-4.58C1569.132,285.844,1568.679,290.347,1572.81,290.424z"/>
				<path fill="#705E2D" d="M1572.458,291.632c0,0,1.293-2.684,5.185-2.389C1577.643,289.243,1576.271,293.178,1572.458,291.632z"/>
				<path fill="#705E2D" d="M1573.66,287.921c0,0-1.766-3.23,2.129-5.13C1575.789,282.791,1577.466,286.439,1573.66,287.921z"/>
			</g>
			<g>
				<path fill="#705E2D" d="M1627.194,320.103c0,0-3.322-14.787-11.738-23.557c-8.414-8.77-8.689-19.229-8.689-19.229"/>
				<path fill="#705E2D" d="M1621.816,305.72c0,0-6.205-5.877-13.991,1.982C1607.825,307.702,1617.835,314.999,1621.816,305.72z"/>
				<g>
					<path fill="#705E2D" d="M1622.197,304.129c0,0-4.739-6.136,7.657-11.371C1629.854,292.758,1631.308,304.832,1622.197,304.129z"
						/>
					<path fill="#705E2D" d="M1621.895,305.438c0,0,0.907-3.269,4.475-6.926"/>
				</g>
				<path fill="#705E2D" d="M1615.456,296.546c0,0-6.296-7.29-15.133,0.002C1600.323,296.548,1611.018,305.158,1615.456,296.546z"/>
				<path fill="#705E2D" d="M1615.456,296.546c0,0-4.277-5.646,4.657-12.551C1620.113,283.995,1623.264,297.839,1615.456,296.546z"
					/>
				<path fill="#705E2D" d="M1625.936,314.758c0,0-2.417-6.659,8.16-10.612C1634.096,304.146,1633.013,318.3,1625.936,314.758z"/>
				<path fill="#705E2D" d="M1609.401,287.526c0,0-4.651-4.704-9.313-0.16C1600.088,287.366,1606.002,292.905,1609.401,287.526z"/>
				<path fill="#705E2D" d="M1610.49,289.734c0,0-1.998-4.303,3.125-7.586C1613.615,282.148,1616.289,291.518,1610.49,289.734z"/>
				<path fill="#705E2D" d="M1607.432,281.689c0,0-1.474-3.787-5.496-2.072C1601.936,279.617,1603.835,283.726,1607.432,281.689z"/>
				<path fill="#705E2D" d="M1607.743,282.909c0,0-0.252-2.968,3.249-4.694C1610.992,278.215,1611.813,282.299,1607.743,282.909z"/>
				<path fill="#705E2D" d="M1606.891,279.103c0,0-3.164-1.884-0.776-5.501C1606.114,273.602,1609.414,275.892,1606.891,279.103z"/>
			</g>
			<g>
				<path fill="#705E2D" d="M1567.638,333.861c0,0-25.694-5.011-31.648-26.934"/>
				<path fill="#705E2D" d="M1555.942,329.619c0,0-5.115-6.759,2.955-12.526C1558.897,317.093,1565.24,327.013,1555.942,329.619z"/>
				<path fill="#705E2D" d="M1555.942,329.619c0,0-6.168-3.323-8.541,3.61C1547.401,333.229,1554.941,335.519,1555.942,329.619z"/>
				<path fill="#705E2D" d="M1548.36,324.882c0,0-6.665-3.427-9.906,2.951C1538.454,327.833,1546.322,330.562,1548.36,324.882z"/>
				<path fill="#705E2D" d="M1549.248,325.552c0,0-3.609-6.788,3.943-10.232C1553.191,315.319,1556.3,323.367,1549.248,325.552z"/>
				<path fill="#705E2D" d="M1544.248,321.44c0,0-3.929-3.366-7.241-0.153C1537.007,321.287,1539.737,325.044,1544.248,321.44z"/>
				<path fill="#705E2D" d="M1541.187,317.836c0,0-3.298-2.827-6.079-0.129C1535.107,317.707,1537.398,320.859,1541.187,317.836z"/>
				<path fill="#705E2D" d="M1544.402,321.532c0,0-1.967-6.071,2.874-8.008C1547.276,313.524,1549.897,319.664,1544.402,321.532z"/>
				<path fill="#705E2D" d="M1541.255,317.545c0,0-1.485-4.587,2.171-6.05C1543.426,311.495,1545.406,316.134,1541.255,317.545z"/>
				<path fill="#705E2D" d="M1538.769,313.896c0,0-1.048-3.4,1.708-4.765C1540.477,309.132,1541.97,312.035,1538.769,313.896z"/>
				<path fill="#705E2D" d="M1538.643,313.625c0,0-1.901-2.017-4.541-0.429C1534.102,313.196,1535.84,315.923,1538.643,313.625z"/>
				<path fill="#705E2D" d="M1537.332,310.856c0,0-4.54-1.518-1.583-5.967C1535.749,304.89,1538.604,307.199,1537.332,310.856z"/>
			</g>
			<g>
				<path fill="#705E2D" d="M1616.883,316.49c0,0-25.694-5.011-31.648-26.934"/>
				<path fill="#705E2D" d="M1605.187,312.248c0,0-5.114-6.759,2.956-12.525C1608.143,299.723,1614.484,309.643,1605.187,312.248z"
					/>
				<path fill="#705E2D" d="M1605.187,312.248c0,0-6.167-3.322-8.541,3.61C1596.646,315.858,1604.186,318.147,1605.187,312.248z"/>
				<path fill="#705E2D" d="M1597.604,307.512c0,0-6.665-3.428-9.905,2.95C1587.698,310.462,1595.567,313.19,1597.604,307.512z"/>
				<path fill="#705E2D" d="M1598.493,308.181c0,0-3.61-6.789,3.943-10.231C1602.437,297.949,1605.544,305.996,1598.493,308.181z"/>
				<path fill="#705E2D" d="M1593.493,304.07c0,0-3.93-3.368-7.242-0.154C1586.251,303.916,1588.981,307.672,1593.493,304.07z"/>
				<path fill="#705E2D" d="M1590.431,300.466c0,0-3.298-2.828-6.078-0.13C1584.353,300.336,1586.644,303.489,1590.431,300.466z"/>
				<path fill="#705E2D" d="M1593.647,304.162c0,0-1.968-6.071,2.873-8.01C1596.521,296.152,1599.143,302.294,1593.647,304.162z"/>
				<path fill="#705E2D" d="M1590.499,300.173c0,0-1.485-4.585,2.171-6.048C1592.67,294.125,1594.65,298.763,1590.499,300.173z"/>
				<path fill="#705E2D" d="M1588.014,296.525c0,0-1.048-3.399,1.707-4.764C1589.721,291.762,1591.214,294.665,1588.014,296.525z"/>
				<path fill="#705E2D" d="M1587.887,296.255c0,0-1.902-2.018-4.54-0.431C1583.347,295.824,1585.084,298.552,1587.887,296.255z"/>
				<path fill="#705E2D" d="M1586.576,293.486c0,0-4.54-1.518-1.583-5.969C1584.993,287.518,1587.85,289.828,1586.576,293.486z"/>
			</g>
		</g>
	</g>
</g>
</svg>
